<?xml version="1.0" encoding="UTF-8" standalone="no"?>
<!-- Created with Inkscape (http://www.inkscape.org/) -->

<svg
   xmlns:dc="http://purl.org/dc/elements/1.1/"
   xmlns:cc="http://creativecommons.org/ns#"
   xmlns:rdf="http://www.w3.org/1999/02/22-rdf-syntax-ns#"
   xmlns:svg="http://www.w3.org/2000/svg"
   xmlns="http://www.w3.org/2000/svg"
   xmlns:sodipodi="http://sodipodi.sourceforge.net/DTD/sodipodi-0.dtd"
   xmlns:inkscape="http://www.inkscape.org/namespaces/inkscape"
   id="svg7260"
   version="1.1"
   inkscape:version="0.91 r13725"
   xml:space="preserve"
   width="235.21249"
   height="118"
   viewBox="0 0 235.21249 118"
   sodipodi:docname="logo4.svg"><metadata
     id="metadata7266"><rdf:RDF><cc:Work
         rdf:about=""><dc:format>image/svg+xml</dc:format><dc:type
           rdf:resource="http://purl.org/dc/dcmitype/StillImage" /><dc:title></dc:title></cc:Work></rdf:RDF></metadata><defs
     id="defs7264"><clipPath
       clipPathUnits="userSpaceOnUse"
       id="clipPath7292"><path
         d="m 0,216 323.37,0 0,-216 L 0,0 0,216 Z"
         id="path7294"
         inkscape:connector-curvature="0" /></clipPath></defs><sodipodi:namedview
     pagecolor="#ffffff"
     bordercolor="#666666"
     borderopacity="1"
     objecttolerance="10"
     gridtolerance="10"
     guidetolerance="10"
     inkscape:pageopacity="0"
     inkscape:pageshadow="2"
     inkscape:window-width="1920"
     inkscape:window-height="1004"
     id="namedview7262"
     showgrid="false"
     inkscape:zoom="0.87407407"
     inkscape:cx="242.72065"
     inkscape:cy="135"
     inkscape:window-x="0"
     inkscape:window-y="24"
     inkscape:window-maximized="1"
     inkscape:current-layer="g7268" /><g
     id="g7268"
     inkscape:groupmode="layer"
     inkscape:label="marchi Unical"
     transform="matrix(1.25,0,0,-1.25,0,118)"><path
       d="m 77.027186,62.807712 32.358004,0 0,-5.398 -32.358004,0 0,5.398 z"
       style="fill:#b71e24;fill-opacity:1;fill-rule:evenodd;stroke:none"
       id="path7270"
       inkscape:connector-curvature="0" /><path
       d="m 77.027186,69.541712 32.358004,0 0,-5.393 -32.358004,0 0,5.393 z"
       style="fill:#b71e24;fill-opacity:1;fill-rule:evenodd;stroke:none"
       id="path7272"
       inkscape:connector-curvature="0" /><path
       d="m 77.027186,76.283712 32.358004,0 0,-5.393 -32.358004,0 0,5.393 z"
       style="fill:#b71e24;fill-opacity:1;fill-rule:evenodd;stroke:none"
       id="path7274"
       inkscape:connector-curvature="0" /><path
       d="m 77.027186,83.023712 32.358004,0 0,-5.387 -32.358004,0 0,5.387 z"
       style="fill:#b71e24;fill-opacity:1;fill-rule:evenodd;stroke:none"
       id="path7276"
       inkscape:connector-curvature="0" /><path
       d="m 77.027186,89.763712 32.358004,0 0,-5.388 -32.358004,0 0,5.388 z"
       style="fill:#b71e24;fill-opacity:1;fill-rule:evenodd;stroke:none"
       id="path7278"
       inkscape:connector-curvature="0" /><g
       id="g7280"
       transform="translate(110.73589,57.409312)"><path
         d="M 0,0 12.134,12.132 0,12.132 0,0 Z"
         style="fill:#231f20;fill-opacity:1;fill-rule:evenodd;stroke:none"
         id="path7282"
         inkscape:connector-curvature="0" /></g><path
       d="m 110.73619,76.283712 16.142,0 0,-5.393 -16.142,0 0,5.393 z"
       style="fill:#918f90;fill-opacity:1;fill-rule:evenodd;stroke:none"
       id="path7284"
       inkscape:connector-curvature="0" /><path
       d="m 110.73619,83.023712 16.142,0 0,-5.387 -16.142,0 0,5.387 z"
       style="fill:#918f90;fill-opacity:1;fill-rule:evenodd;stroke:none"
       id="path7286"
       inkscape:connector-curvature="0" /><g
       id="g7288"
       transform="translate(-67.728814,-62.237288)"><g
         id="g7290"
         clip-path="url(#clipPath7292)"><g
           id="g7296"
           transform="translate(75.9059,83.8869)"><path
             d="m 0,0 c -0.99,0 -1.878,0.154 -2.64,0.457 -0.768,0.305 -1.393,0.75 -1.858,1.322 -0.326,0.414 -0.562,0.918 -0.704,1.501 -0.139,0.576 -0.21,1.488 -0.21,2.713 l 0,6.798 c 0,0.614 -0.068,1.056 -0.203,1.313 -0.124,0.236 -0.322,0.357 -0.607,0.368 l -0.116,0.005 0,0.622 4.194,0 0,-0.622 -0.116,-0.005 c -0.286,-0.011 -0.485,-0.129 -0.608,-0.359 -0.135,-0.25 -0.203,-0.695 -0.203,-1.322 l 0,-7.202 c 0,-1.65 0.279,-2.824 0.83,-3.489 0.544,-0.657 1.494,-0.991 2.823,-0.991 0.622,0 1.164,0.067 1.61,0.198 0.442,0.129 0.839,0.332 1.181,0.604 0.437,0.356 0.75,0.852 0.929,1.471 0.183,0.634 0.276,1.738 0.276,3.281 l 0,4.798 c 0,0.975 -0.11,1.717 -0.329,2.207 -0.211,0.47 -0.53,0.733 -0.978,0.806 l -0.101,0.016 0,0.609 3.651,0 0,-0.595 -0.086,-0.026 C 6.294,14.343 5.992,14.064 5.812,13.626 5.625,13.174 5.531,12.412 5.531,11.362 l 0,-4.719 C 5.531,5.277 5.458,4.233 5.316,3.54 5.171,2.839 4.93,2.261 4.599,1.821 4.12,1.207 3.494,0.745 2.739,0.447 1.99,0.15 1.068,0 0,0"
             style="fill:#231f20;fill-opacity:1;fill-rule:nonzero;stroke:none"
             id="path7298"
             inkscape:connector-curvature="0" /></g><g
           id="g7300"
           transform="translate(95.5927,84.0544)"><path
             d="m 0,0 -1.011,0 -0.037,0.051 -8.941,12.519 0,-9.168 c 0,-0.785 0.116,-1.408 0.346,-1.85 0.224,-0.433 0.542,-0.684 0.974,-0.77 l 0.098,-0.019 0,-0.606 -3.74,0 0,0.591 0.079,0.029 c 0.449,0.166 0.78,0.444 0.985,0.825 0.209,0.391 0.315,0.943 0.315,1.642 l 0,9.261 c 0,0.611 -0.092,1.064 -0.276,1.348 -0.177,0.275 -0.447,0.423 -0.824,0.452 l -0.112,0.009 0,0.618 3.248,0 7.944,-11.15 0,6.782 c 0,1.331 -0.109,2.28 -0.326,2.822 -0.209,0.522 -0.557,0.823 -1.063,0.921 l -0.098,0.019 0,0.606 3.483,0 0,-0.574 -0.058,-0.035 C 0.626,14.103 0.37,13.773 0.225,13.343 0.076,12.896 0,12.011 0,10.712 L 0,0 Z"
             style="fill:#231f20;fill-opacity:1;fill-rule:nonzero;stroke:none"
             id="path7302"
             inkscape:connector-curvature="0" /></g><g
           id="g7304"
           transform="translate(102.3311,84.2119)"><path
             d="m 0,0 -4.194,0 0,0.61 0.114,0.007 c 0.292,0.017 0.493,0.139 0.614,0.373 0.131,0.253 0.198,0.687 0.198,1.289 l 0,10.187 c 0,0.614 -0.068,1.056 -0.203,1.313 -0.124,0.236 -0.322,0.357 -0.607,0.368 l -0.116,0.005 0,0.623 4.194,0 0,-0.623 -0.116,-0.005 c -0.286,-0.011 -0.485,-0.129 -0.608,-0.359 -0.135,-0.25 -0.203,-0.695 -0.203,-1.322 l 0,-10.187 c 0,-0.613 0.067,-1.05 0.198,-1.298 0.12,-0.227 0.32,-0.343 0.612,-0.354 L 0,0.622 0,0 Z"
             style="fill:#231f20;fill-opacity:1;fill-rule:nonzero;stroke:none"
             id="path7306"
             inkscape:connector-curvature="0" /></g><g
           id="g7308"
           transform="translate(110.1891,83.8869)"><path
             d="m 0,0 -1.408,0 -4.323,12.633 c -0.192,0.565 -0.391,0.999 -0.591,1.291 -0.191,0.28 -0.409,0.467 -0.647,0.556 l -0.079,0.03 0,0.589 4.134,0 0,-0.604 -0.097,-0.02 c -0.196,-0.041 -0.347,-0.116 -0.447,-0.225 -0.098,-0.106 -0.145,-0.245 -0.145,-0.425 0,-0.069 0.012,-0.16 0.036,-0.269 0.026,-0.116 0.065,-0.261 0.116,-0.435 l 3.397,-10.142 2.913,9.346 c 0.037,0.127 0.065,0.265 0.085,0.408 0.019,0.148 0.028,0.287 0.028,0.423 0,0.321 -0.089,0.618 -0.265,0.883 -0.173,0.258 -0.368,0.4 -0.597,0.435 l -0.104,0.015 0,0.61 3.652,0 0,-0.585 -0.074,-0.032 C 5.148,14.295 4.777,13.991 4.482,13.578 4.182,13.155 3.903,12.54 3.652,11.749 L 0,0 Z"
             style="fill:#231f20;fill-opacity:1;fill-rule:nonzero;stroke:none"
             id="path7310"
             inkscape:connector-curvature="0" /></g><g
           id="g7312"
           transform="translate(127.2834,84.2119)"><path
             d="m 0,0 -10.725,0 0,0.625 0.119,0.002 c 0.283,0.006 0.481,0.123 0.604,0.358 0.135,0.258 0.203,0.693 0.203,1.294 l 0,10.187 c 0,0.627 -0.068,1.072 -0.202,1.322 -0.123,0.23 -0.322,0.348 -0.608,0.359 l -0.116,0.005 0,0.623 10.381,0 0.255,-3.054 -0.634,-0.088 -0.034,0.091 c -0.29,0.789 -0.722,1.34 -1.283,1.64 -0.571,0.304 -1.722,0.459 -3.421,0.459 l -0.62,0 c -0.906,0 -1.162,-0.098 -1.234,-0.156 -0.068,-0.055 -0.182,-0.238 -0.182,-0.856 l 0,-4.016 1.977,0 c 1.081,0 1.848,0.1 2.279,0.299 0.423,0.194 0.71,0.527 0.877,1.017 l 0.028,0.082 0.543,0 0,-3.7 -0.562,0 -0.029,0.081 C -2.55,7.055 -2.8,7.391 -3.126,7.572 -3.461,7.758 -4.17,7.852 -5.234,7.852 l -2.263,0 0,-5.632 c 0,-0.746 0.143,-1.003 0.264,-1.088 0.129,-0.091 0.508,-0.199 1.576,-0.199 1.056,0 1.818,0.023 2.263,0.068 0.444,0.045 0.837,0.119 1.168,0.222 0.414,0.137 0.821,0.376 1.208,0.709 0.392,0.338 0.814,0.82 1.252,1.432 L 0.296,3.451 0.899,3.128 0,0 Z"
             style="fill:#231f20;fill-opacity:1;fill-rule:nonzero;stroke:none"
             id="path7314"
             inkscape:connector-curvature="0" /></g><g
           id="g7316"
           transform="translate(132.5348,91.763)"><path
             d="m 0,0 c 0.156,-0.028 0.331,-0.049 0.522,-0.062 0.233,-0.016 0.524,-0.025 0.864,-0.025 1.616,0 2.823,0.275 3.59,0.815 0.753,0.532 1.135,1.364 1.135,2.473 0,1.095 -0.34,1.952 -1.013,2.549 C 4.421,6.351 3.444,6.656 2.193,6.656 1.35,6.656 0.764,6.544 0.451,6.323 0.152,6.111 0,5.701 0,5.102 L 0,0 Z M 8.936,-9.268 8.767,-9.196 C 7.343,-8.594 6.041,-7.564 4.897,-6.136 3.772,-4.731 2.821,-2.961 2.069,-0.872 1.975,-0.873 1.85,-0.877 1.695,-0.882 1.483,-0.888 1.328,-0.891 1.229,-0.891 0.95,-0.891 0.537,-0.879 0,-0.855 l 0,-4.417 c 0,-0.614 0.068,-1.052 0.202,-1.303 0.123,-0.229 0.321,-0.343 0.605,-0.349 l 0.119,-0.002 0,-0.625 -4.154,0 0,0.625 0.119,0.002 c 0.283,0.006 0.481,0.123 0.604,0.358 0.135,0.258 0.203,0.693 0.203,1.294 l 0,10.187 c 0,0.627 -0.068,1.072 -0.202,1.322 -0.124,0.23 -0.322,0.348 -0.608,0.359 l -0.116,0.005 0,0.617 3.406,0.163 C 0.665,7.401 1.065,7.415 1.377,7.425 1.69,7.435 1.923,7.44 2.076,7.44 4.041,7.44 5.631,7.049 6.802,6.278 7.989,5.494 8.591,4.439 8.591,3.141 8.591,2.185 8.217,1.351 7.479,0.664 6.775,0.009 5.808,-0.445 4.601,-0.685 5.297,-2.655 6.01,-4.317 6.719,-5.628 7.441,-6.961 8.172,-7.951 8.893,-8.569 l 0.043,-0.036 0,-0.663 z"
             style="fill:#231f20;fill-opacity:1;fill-rule:nonzero;stroke:none"
             id="path7318"
             inkscape:connector-curvature="0" /></g><g
           id="g7320"
           transform="translate(147.7922,83.8869)"><path
             d="m 0,0 c -0.969,0 -1.913,0.165 -2.805,0.49 -0.894,0.325 -1.714,0.804 -2.437,1.421 l -0.059,0.05 0.84,2.978 0.631,-0.112 0.017,-0.079 c 0.275,-1.25 0.773,-2.227 1.478,-2.904 0.699,-0.67 1.558,-1.01 2.551,-1.01 0.891,0 1.621,0.253 2.17,0.751 0.546,0.496 0.822,1.15 0.822,1.945 0,0.752 -0.219,1.369 -0.652,1.834 -0.442,0.473 -1.393,1.002 -2.828,1.57 -0.117,0.046 -0.302,0.118 -0.551,0.217 -1.37,0.529 -2.31,1.057 -2.792,1.566 -0.357,0.377 -0.63,0.792 -0.813,1.235 -0.183,0.444 -0.276,0.918 -0.276,1.41 0,1.154 0.433,2.129 1.287,2.898 0.851,0.766 1.93,1.155 3.209,1.155 0.699,0 1.43,-0.123 2.172,-0.366 0.739,-0.242 1.498,-0.606 2.258,-1.081 l 0.075,-0.047 -0.701,-2.7 -0.591,0.116 -0.02,0.074 c -0.255,0.99 -0.689,1.77 -1.289,2.32 -0.595,0.544 -1.301,0.82 -2.1,0.82 -0.8,0 -1.446,-0.21 -1.92,-0.625 -0.476,-0.416 -0.708,-0.952 -0.708,-1.637 0,-0.608 0.201,-1.123 0.597,-1.531 C -2.028,10.337 -1.207,9.873 0.006,9.376 0.137,9.324 0.328,9.245 0.578,9.139 2.308,8.445 3.394,7.866 3.898,7.37 4.275,7.006 4.561,6.58 4.748,6.107 4.933,5.635 5.027,5.096 5.027,4.505 5.027,3.207 4.549,2.119 3.607,1.272 2.67,0.428 1.456,0 0,0"
             style="fill:#231f20;fill-opacity:1;fill-rule:nonzero;stroke:none"
             id="path7322"
             inkscape:connector-curvature="0" /></g><g
           id="g7324"
           transform="translate(158.6611,84.2119)"><path
             d="m 0,0 -4.194,0 0,0.61 0.114,0.007 c 0.292,0.017 0.493,0.139 0.614,0.373 0.131,0.253 0.198,0.687 0.198,1.289 l 0,10.187 c 0,0.614 -0.068,1.056 -0.203,1.313 -0.124,0.236 -0.322,0.357 -0.607,0.368 l -0.116,0.005 0,0.623 4.194,0 0,-0.623 -0.116,-0.005 c -0.286,-0.011 -0.485,-0.129 -0.608,-0.359 -0.135,-0.25 -0.203,-0.695 -0.203,-1.322 l 0,-10.187 c 0,-0.613 0.067,-1.05 0.198,-1.298 0.12,-0.227 0.32,-0.343 0.612,-0.354 L 0,0.622 0,0 Z"
             style="fill:#231f20;fill-opacity:1;fill-rule:nonzero;stroke:none"
             id="path7326"
             inkscape:connector-curvature="0" /></g><g
           id="g7328"
           transform="translate(168.1511,84.2119)"><path
             d="m 0,0 -4.23,0 0.017,0.622 0.113,0.005 c 0.284,0.011 0.48,0.13 0.601,0.363 0.131,0.253 0.198,0.687 0.198,1.289 l 0,11.073 c 0,0.289 -0.048,0.375 -0.068,0.399 -0.015,0.017 -0.084,0.072 -0.352,0.072 -1.096,0 -1.942,-0.174 -2.515,-0.516 -0.573,-0.342 -1.11,-0.957 -1.596,-1.826 l -0.053,-0.095 -0.64,0.27 0.819,3.119 11.162,0 0.819,-3.119 -0.64,-0.27 -0.053,0.095 c -0.486,0.877 -1.022,1.493 -1.591,1.831 -0.57,0.339 -1.411,0.511 -2.5,0.511 -0.272,0 -0.351,-0.056 -0.373,-0.079 C -0.911,13.712 -0.96,13.62 -0.96,13.352 l 0,-11.073 c 0,-0.606 0.072,-1.042 0.212,-1.296 0.129,-0.234 0.331,-0.35 0.615,-0.356 L -0.017,0.625 0,0 Z"
             style="fill:#231f20;fill-opacity:1;fill-rule:nonzero;stroke:none"
             id="path7330"
             inkscape:connector-curvature="0" /></g><g
           id="g7332"
           transform="translate(175.9757,89.883)"><path
             d="M 0,0 4.191,0 2.173,6.657 0,0 Z m 8.962,-5.671 -4.177,0 0,0.603 0.095,0.021 c 0.188,0.041 0.334,0.118 0.446,0.236 0.107,0.113 0.159,0.242 0.159,0.394 0,0.086 -0.028,0.279 -0.163,0.713 L 5.3,-3.634 c -0.022,0.071 -0.041,0.129 -0.056,0.173 l -0.772,2.509 -4.787,0 -0.604,-1.857 c -0.057,-0.19 -0.1,-0.375 -0.129,-0.544 -0.028,-0.172 -0.042,-0.328 -0.042,-0.463 0,-0.347 0.076,-0.628 0.227,-0.834 0.151,-0.207 0.367,-0.337 0.661,-0.396 l 0.097,-0.02 0,-0.605 -3.79,0 0,0.592 0.082,0.028 c 0.472,0.162 0.875,0.47 1.197,0.917 0.329,0.456 0.673,1.242 1.023,2.335 l 3.663,11.218 1.446,0 4.048,-12.468 C 7.789,-3.752 8.011,-4.268 8.224,-4.586 8.42,-4.879 8.626,-5.033 8.833,-5.044 L 8.945,-5.05 8.962,-5.671 Z"
             style="fill:#231f20;fill-opacity:1;fill-rule:nonzero;stroke:none"
             id="path7334"
             inkscape:connector-curvature="0" /></g><g
           id="g7336"
           transform="translate(180.8037,100.1523)"><path
             d="m 0,0 -0.981,0 -3.281,2.038 c -0.217,0.14 -0.382,0.286 -0.492,0.435 -0.117,0.16 -0.176,0.326 -0.176,0.496 0,0.23 0.08,0.425 0.239,0.579 0.264,0.258 0.68,0.319 1.066,0.098 0.149,-0.086 0.338,-0.247 0.579,-0.494 L 0,0 Z"
             style="fill:#231f20;fill-opacity:1;fill-rule:nonzero;stroke:none"
             id="path7338"
             inkscape:connector-curvature="0" /></g><g
           id="g7340"
           transform="translate(197.638,98.2313)"><path
             d="m 0,0 c -1.08,0 -1.792,-0.106 -2.116,-0.315 -0.306,-0.199 -0.462,-0.616 -0.462,-1.238 l 0,-10.424 c 0,-0.471 0.101,-0.791 0.299,-0.949 0.143,-0.114 0.51,-0.25 1.452,-0.25 2.148,0 3.677,0.484 4.545,1.439 0.872,0.958 1.314,2.634 1.314,4.982 0,2.274 -0.421,3.99 -1.252,5.099 C 2.957,-0.557 1.685,0 0,0 m -0.315,-14.019 -5.491,0 0,0.624 0.119,0.003 c 0.284,0.005 0.481,0.123 0.605,0.358 0.134,0.257 0.202,0.693 0.202,1.294 l 0,10.187 c 0,0.626 -0.068,1.071 -0.202,1.322 -0.123,0.23 -0.322,0.348 -0.607,0.359 l -0.117,0.005 0,0.619 3.35,0.102 c 0.244,0.006 0.485,0.011 0.726,0.015 0.24,0.003 0.541,0.004 0.903,0.004 1.053,0 1.934,-0.065 2.619,-0.194 0.687,-0.129 1.319,-0.34 1.88,-0.627 1.177,-0.599 2.122,-1.525 2.809,-2.753 0.683,-1.224 1.03,-2.615 1.03,-4.133 0,-2.239 -0.7,-4.016 -2.078,-5.282 -1.377,-1.263 -3.311,-1.903 -5.748,-1.903"
             style="fill:#231f20;fill-opacity:1;fill-rule:nonzero;stroke:none"
             id="path7342"
             inkscape:connector-curvature="0" /></g><g
           id="g7344"
           transform="translate(217.0872,84.2119)"><path
             d="m 0,0 -10.725,0 0,0.625 0.119,0.002 c 0.283,0.006 0.481,0.123 0.604,0.358 0.135,0.258 0.203,0.693 0.203,1.294 l 0,10.187 c 0,0.627 -0.068,1.072 -0.202,1.322 -0.123,0.23 -0.322,0.348 -0.608,0.359 l -0.116,0.005 0,0.623 10.381,0 0.255,-3.054 -0.634,-0.088 -0.034,0.091 c -0.29,0.789 -0.722,1.34 -1.283,1.64 -0.571,0.304 -1.722,0.459 -3.421,0.459 l -0.62,0 c -0.906,0 -1.162,-0.098 -1.234,-0.156 -0.068,-0.055 -0.182,-0.238 -0.182,-0.856 l 0,-4.016 1.977,0 c 1.081,0 1.848,0.1 2.279,0.299 0.423,0.194 0.71,0.527 0.877,1.017 l 0.028,0.082 0.543,0 0,-3.7 -0.562,0 -0.029,0.081 C -2.55,7.055 -2.8,7.391 -3.126,7.572 -3.461,7.758 -4.17,7.852 -5.234,7.852 l -2.263,0 0,-5.632 c 0,-0.746 0.143,-1.003 0.264,-1.088 0.129,-0.091 0.508,-0.199 1.576,-0.199 1.056,0 1.817,0.023 2.263,0.068 0.444,0.045 0.837,0.119 1.168,0.222 0.414,0.137 0.821,0.376 1.208,0.709 0.392,0.338 0.814,0.82 1.252,1.432 L 0.296,3.451 0.899,3.128 0,0 Z"
             style="fill:#231f20;fill-opacity:1;fill-rule:nonzero;stroke:none"
             id="path7346"
             inkscape:connector-curvature="0" /></g><g
           id="g7348"
           transform="translate(228.7422,84.2119)"><path
             d="m 0,0 -10.019,0 0,0.61 0.114,0.007 c 0.292,0.017 0.493,0.139 0.614,0.373 0.131,0.253 0.198,0.687 0.198,1.289 l 0,10.187 c 0,0.614 -0.068,1.056 -0.203,1.313 -0.124,0.236 -0.323,0.357 -0.607,0.368 l -0.116,0.005 0,0.623 4.194,0 0,-0.623 -0.117,-0.005 c -0.285,-0.011 -0.484,-0.129 -0.607,-0.359 -0.135,-0.25 -0.203,-0.695 -0.203,-1.322 l 0,-10.246 c 0,-0.732 0.135,-0.986 0.247,-1.07 0.121,-0.091 0.442,-0.198 1.287,-0.198 1.037,0 1.811,0.047 2.298,0.141 0.481,0.092 0.917,0.248 1.297,0.464 0.245,0.138 0.512,0.359 0.795,0.658 0.287,0.303 0.603,0.696 0.939,1.169 L 0.164,3.457 0.799,3.245 0,0 Z"
             style="fill:#231f20;fill-opacity:1;fill-rule:nonzero;stroke:none"
             id="path7350"
             inkscape:connector-curvature="0" /></g><g
           id="g7352"
           transform="translate(240.2278,84.2119)"><path
             d="m 0,0 -10.019,0 0,0.61 0.114,0.007 c 0.292,0.017 0.493,0.139 0.614,0.373 0.131,0.253 0.198,0.687 0.198,1.289 l 0,10.187 c 0,0.614 -0.068,1.056 -0.203,1.313 -0.124,0.236 -0.323,0.357 -0.607,0.368 l -0.116,0.005 0,0.623 4.194,0 0,-0.623 -0.116,-0.005 c -0.286,-0.011 -0.485,-0.129 -0.608,-0.359 -0.135,-0.25 -0.203,-0.695 -0.203,-1.322 l 0,-10.246 c 0,-0.732 0.135,-0.986 0.247,-1.07 0.121,-0.091 0.442,-0.198 1.287,-0.198 1.037,0 1.811,0.047 2.298,0.141 0.481,0.092 0.917,0.248 1.297,0.464 0.245,0.138 0.512,0.359 0.795,0.658 0.287,0.303 0.603,0.696 0.939,1.169 L 0.164,3.457 0.799,3.245 0,0 Z"
             style="fill:#231f20;fill-opacity:1;fill-rule:nonzero;stroke:none"
             id="path7354"
             inkscape:connector-curvature="0" /></g><g
           id="g7356"
           transform="translate(244.8404,89.883)"><path
             d="M 0,0 4.191,0 2.173,6.657 0,0 Z m 8.962,-5.671 -4.177,0 0,0.603 0.095,0.021 c 0.188,0.041 0.334,0.118 0.446,0.236 0.107,0.113 0.159,0.242 0.159,0.394 0,0.086 -0.028,0.279 -0.163,0.713 L 5.3,-3.634 c -0.022,0.071 -0.041,0.129 -0.056,0.173 l -0.772,2.509 -4.787,0 -0.604,-1.857 c -0.057,-0.19 -0.1,-0.375 -0.129,-0.544 -0.028,-0.172 -0.042,-0.328 -0.042,-0.463 0,-0.347 0.076,-0.628 0.227,-0.834 0.151,-0.207 0.367,-0.337 0.661,-0.396 l 0.097,-0.02 0,-0.605 -3.79,0 0,0.592 0.082,0.028 c 0.472,0.162 0.875,0.47 1.197,0.917 0.329,0.456 0.673,1.242 1.023,2.335 l 3.663,11.218 1.446,0 4.048,-12.468 C 7.789,-3.752 8.011,-4.268 8.224,-4.586 8.42,-4.879 8.626,-5.033 8.833,-5.044 L 8.945,-5.05 8.962,-5.671 Z"
             style="fill:#231f20;fill-opacity:1;fill-rule:nonzero;stroke:none"
             id="path7358"
             inkscape:connector-curvature="0" /></g><g
           id="g7360"
           transform="translate(124.5451,65.3912)"><path
             d="m 0,0 c -1.984,0 -3.597,0.671 -4.795,1.995 -1.194,1.321 -1.799,3.1 -1.799,5.289 0,1.375 0.23,2.641 0.683,3.764 0.454,1.125 1.133,2.102 2.016,2.907 0.503,0.462 1.127,0.825 1.855,1.078 1.43,0.5 3.059,0.53 4.735,-0.048 0.822,-0.284 1.688,-0.723 2.573,-1.304 L 5.345,13.63 4.528,11.001 3.887,11.096 3.864,11.167 c -0.358,1.109 -0.888,1.964 -1.573,2.541 -0.681,0.573 -1.511,0.863 -2.468,0.863 -1.24,0 -2.255,-0.554 -3.019,-1.648 -0.773,-1.107 -1.165,-2.603 -1.165,-4.447 0,-2.079 0.501,-3.8 1.488,-5.115 0.978,-1.304 2.243,-1.966 3.759,-1.966 0.881,0 1.699,0.22 2.431,0.653 0.738,0.437 1.435,1.108 2.071,1.996 L 5.458,4.142 6.015,3.751 5.956,3.654 C 5.193,2.408 4.321,1.478 3.364,0.89 2.404,0.299 1.272,0 0,0"
             style="fill:#231f20;fill-opacity:1;fill-rule:nonzero;stroke:none"
             id="path7362"
             inkscape:connector-curvature="0" /></g><g
           id="g7364"
           transform="translate(133.7666,71.3873)"><path
             d="M 0,0 4.191,0 2.173,6.657 0,0 Z m 8.962,-5.671 -4.177,0 0,0.603 0.095,0.021 c 0.188,0.041 0.334,0.118 0.446,0.236 0.107,0.113 0.159,0.242 0.159,0.394 0,0.086 -0.029,0.279 -0.163,0.713 L 5.3,-3.634 c -0.022,0.071 -0.041,0.129 -0.056,0.173 l -0.772,2.509 -4.787,0 -0.604,-1.857 c -0.057,-0.19 -0.1,-0.374 -0.129,-0.544 -0.028,-0.172 -0.042,-0.328 -0.042,-0.463 0,-0.347 0.076,-0.628 0.227,-0.834 0.151,-0.207 0.367,-0.337 0.661,-0.396 l 0.097,-0.02 0,-0.605 -3.79,0 0,0.592 0.082,0.028 c 0.472,0.162 0.875,0.47 1.197,0.917 0.329,0.456 0.673,1.242 1.023,2.335 l 3.663,11.218 1.446,0 4.048,-12.468 C 7.789,-3.751 8.011,-4.268 8.224,-4.586 8.42,-4.879 8.626,-5.033 8.833,-5.044 L 8.945,-5.05 8.962,-5.671 Z"
             style="fill:#231f20;fill-opacity:1;fill-rule:nonzero;stroke:none"
             id="path7366"
             inkscape:connector-curvature="0" /></g><g
           id="g7368"
           transform="translate(153.4275,65.7162)"><path
             d="m 0,0 -10.019,0 0,0.61 0.114,0.007 c 0.292,0.017 0.493,0.139 0.614,0.373 0.131,0.253 0.198,0.687 0.198,1.289 l 0,10.187 c 0,0.614 -0.068,1.056 -0.203,1.313 -0.124,0.236 -0.323,0.357 -0.607,0.368 l -0.116,0.005 0,0.623 4.194,0 0,-0.623 -0.116,-0.005 c -0.286,-0.011 -0.485,-0.129 -0.608,-0.359 -0.135,-0.25 -0.203,-0.695 -0.203,-1.322 l 0,-10.246 c 0,-0.732 0.135,-0.986 0.247,-1.07 0.121,-0.091 0.442,-0.198 1.287,-0.198 1.037,0 1.811,0.047 2.298,0.141 0.481,0.092 0.917,0.248 1.297,0.464 0.245,0.138 0.512,0.359 0.795,0.658 0.287,0.303 0.603,0.696 0.939,1.169 L 0.164,3.457 0.799,3.245 0,0 Z"
             style="fill:#231f20;fill-opacity:1;fill-rule:nonzero;stroke:none"
             id="path7370"
             inkscape:connector-curvature="0" /></g><g
           id="g7372"
           transform="translate(158.1407,71.3873)"><path
             d="M 0,0 4.191,0 2.173,6.657 0,0 Z m 8.962,-5.671 -4.177,0 0,0.603 0.095,0.021 c 0.188,0.041 0.334,0.118 0.446,0.236 0.107,0.113 0.159,0.242 0.159,0.394 0,0.086 -0.029,0.279 -0.163,0.713 L 5.3,-3.634 c -0.022,0.071 -0.041,0.129 -0.056,0.173 l -0.772,2.509 -4.787,0 -0.604,-1.857 c -0.057,-0.19 -0.1,-0.374 -0.129,-0.544 -0.028,-0.172 -0.042,-0.328 -0.042,-0.463 0,-0.347 0.076,-0.628 0.227,-0.834 0.151,-0.207 0.367,-0.337 0.661,-0.396 l 0.097,-0.02 0,-0.605 -3.79,0 0,0.592 0.082,0.028 c 0.472,0.162 0.875,0.47 1.197,0.917 0.329,0.456 0.673,1.242 1.023,2.335 l 3.663,11.218 1.446,0 4.048,-12.468 C 7.789,-3.751 8.011,-4.268 8.224,-4.586 8.42,-4.879 8.626,-5.033 8.833,-5.044 L 8.945,-5.05 8.962,-5.671 Z"
             style="fill:#231f20;fill-opacity:1;fill-rule:nonzero;stroke:none"
             id="path7374"
             inkscape:connector-curvature="0" /></g><g
           id="g7376"
           transform="translate(170.9122,74.0279)"><path
             d="M 0,0 1.169,0 C 2.799,0 3.97,0.222 4.65,0.66 5.322,1.093 5.648,1.795 5.648,2.805 5.648,3.741 5.34,4.468 4.733,4.967 4.118,5.472 3.224,5.728 2.076,5.728 1.206,5.728 0.633,5.634 0.373,5.449 0.125,5.274 0,4.845 0,4.174 L 0,0 Z m 0,-0.844 0,-5.209 c 0,-0.795 0.166,-1.081 0.305,-1.182 0.147,-0.106 0.556,-0.233 1.672,-0.233 1.423,0 2.481,0.271 3.146,0.806 0.656,0.528 0.988,1.366 0.988,2.491 0,1.12 -0.322,1.963 -0.957,2.504 -0.641,0.546 -1.644,0.823 -2.98,0.823 l -2.174,0 z m 2.263,-7.468 -5.491,0 0,0.625 0.119,0.002 c 0.283,0.006 0.481,0.123 0.604,0.359 0.135,0.257 0.203,0.692 0.203,1.293 l 0,10.187 c 0,0.627 -0.068,1.072 -0.202,1.322 -0.124,0.231 -0.322,0.348 -0.608,0.36 l -0.116,0.004 0,0.62 3.29,0.082 c 0.363,0.006 0.743,0.014 1.144,0.024 0.402,0.01 0.627,0.015 0.672,0.015 1.763,0 3.22,-0.351 4.331,-1.043 C 7.338,4.834 7.911,3.921 7.911,2.824 7.911,2.017 7.582,1.318 6.934,0.748 6.387,0.268 5.617,-0.114 4.641,-0.389 5.732,-0.663 6.62,-1.119 7.286,-1.747 8.06,-2.477 8.453,-3.362 8.453,-4.378 8.453,-5.651 7.91,-6.639 6.84,-7.313 5.787,-7.976 4.247,-8.312 2.263,-8.312"
             style="fill:#231f20;fill-opacity:1;fill-rule:nonzero;stroke:none"
             id="path7378"
             inkscape:connector-curvature="0" /></g><g
           id="g7380"
           transform="translate(183.8084,73.2673)"><path
             d="m 0,0 c 0.156,-0.028 0.331,-0.049 0.522,-0.062 0.233,-0.016 0.524,-0.025 0.864,-0.025 1.616,0 2.823,0.275 3.59,0.815 0.753,0.532 1.135,1.364 1.135,2.473 0,1.095 -0.34,1.952 -1.013,2.549 C 4.421,6.351 3.444,6.656 2.193,6.656 1.35,6.656 0.764,6.544 0.451,6.323 0.152,6.111 0,5.701 0,5.102 L 0,0 Z M 8.936,-9.268 8.767,-9.196 C 7.343,-8.594 6.041,-7.564 4.897,-6.136 3.772,-4.731 2.821,-2.961 2.069,-0.872 1.975,-0.873 1.85,-0.877 1.695,-0.882 1.483,-0.888 1.328,-0.891 1.229,-0.891 0.95,-0.891 0.537,-0.879 0,-0.855 l 0,-4.417 c 0,-0.614 0.068,-1.052 0.202,-1.302 0.123,-0.23 0.321,-0.344 0.605,-0.35 l 0.119,-0.002 0,-0.625 -4.154,0 0,0.625 0.119,0.002 c 0.283,0.006 0.481,0.123 0.604,0.358 0.135,0.258 0.203,0.693 0.203,1.294 l 0,10.187 c 0,0.627 -0.068,1.072 -0.202,1.322 -0.124,0.23 -0.322,0.348 -0.608,0.359 l -0.116,0.005 0,0.617 3.406,0.163 C 0.665,7.401 1.065,7.416 1.377,7.425 1.69,7.435 1.923,7.44 2.076,7.44 4.041,7.44 5.631,7.049 6.802,6.278 7.989,5.494 8.591,4.439 8.591,3.141 8.591,2.185 8.217,1.351 7.479,0.664 6.775,0.009 5.808,-0.445 4.601,-0.685 5.297,-2.655 6.01,-4.317 6.719,-5.628 7.441,-6.961 8.172,-7.951 8.893,-8.569 l 0.043,-0.036 0,-0.663 z"
             style="fill:#231f20;fill-opacity:1;fill-rule:nonzero;stroke:none"
             id="path7382"
             inkscape:connector-curvature="0" /></g><g
           id="g7384"
           transform="translate(197.7301,65.7162)"><path
             d="m 0,0 -4.194,0 0,0.61 0.114,0.007 c 0.292,0.017 0.493,0.139 0.614,0.373 0.131,0.253 0.198,0.687 0.198,1.289 l 0,10.187 c 0,0.614 -0.068,1.056 -0.203,1.313 -0.124,0.236 -0.322,0.357 -0.607,0.368 l -0.116,0.005 0,0.623 4.194,0 0,-0.623 -0.116,-0.005 c -0.286,-0.011 -0.485,-0.129 -0.608,-0.359 -0.135,-0.25 -0.203,-0.695 -0.203,-1.322 l 0,-10.187 c 0,-0.613 0.067,-1.05 0.198,-1.298 0.12,-0.227 0.32,-0.343 0.612,-0.354 L 0,0.622 0,0 Z"
             style="fill:#231f20;fill-opacity:1;fill-rule:nonzero;stroke:none"
             id="path7386"
             inkscape:connector-curvature="0" /></g><g
           id="g7388"
           transform="translate(202.7662,71.3873)"><path
             d="M 0,0 4.191,0 2.173,6.657 0,0 Z m 8.962,-5.671 -4.177,0 0,0.603 0.095,0.021 c 0.188,0.041 0.334,0.118 0.446,0.236 0.107,0.113 0.159,0.242 0.159,0.394 0,0.086 -0.029,0.279 -0.163,0.713 L 5.3,-3.634 c -0.022,0.071 -0.041,0.129 -0.056,0.173 l -0.772,2.509 -4.787,0 -0.604,-1.857 c -0.057,-0.19 -0.1,-0.374 -0.129,-0.544 -0.028,-0.172 -0.042,-0.328 -0.042,-0.463 0,-0.347 0.076,-0.628 0.227,-0.834 0.151,-0.207 0.367,-0.337 0.661,-0.396 l 0.097,-0.02 0,-0.605 -3.79,0 0,0.592 0.082,0.028 c 0.472,0.162 0.875,0.47 1.197,0.917 0.329,0.456 0.673,1.242 1.023,2.335 l 3.663,11.218 1.446,0 4.048,-12.468 C 7.789,-3.751 8.011,-4.268 8.224,-4.586 8.42,-4.879 8.626,-5.033 8.833,-5.044 L 8.945,-5.05 8.962,-5.671 Z"
             style="fill:#231f20;fill-opacity:1;fill-rule:nonzero;stroke:none"
             id="path7390"
             inkscape:connector-curvature="0" /></g><path
           d="m 253.802,107.143 -184.235,0 0,0.5 184.235,0 0,-0.5 z"
           style="fill:#231f20;fill-opacity:1;fill-rule:nonzero;stroke:none"
           id="path7392"
           inkscape:connector-curvature="0" /></g></g></g></svg>