<?xml version="1.0" encoding="UTF-8" standalone="no"?>
<!-- Created with Inkscape (http://www.inkscape.org/) -->

<svg
   xmlns:dc="http://purl.org/dc/elements/1.1/"
   xmlns:cc="http://creativecommons.org/ns#"
   xmlns:rdf="http://www.w3.org/1999/02/22-rdf-syntax-ns#"
   xmlns:svg="http://www.w3.org/2000/svg"
   xmlns="http://www.w3.org/2000/svg"
   xmlns:sodipodi="http://sodipodi.sourceforge.net/DTD/sodipodi-0.dtd"
   xmlns:inkscape="http://www.inkscape.org/namespaces/inkscape"
   id="svg14289"
   version="1.1"
   inkscape:version="0.91 r13725"
   xml:space="preserve"
   width="143.21249"
   height="150"
   viewBox="0 0 143.21249 150"
   sodipodi:docname="logo13.svg"><metadata
     id="metadata14295"><rdf:RDF><cc:Work
         rdf:about=""><dc:format>image/svg+xml</dc:format><dc:type
           rdf:resource="http://purl.org/dc/dcmitype/StillImage" /><dc:title></dc:title></cc:Work></rdf:RDF></metadata><defs
     id="defs14293"><clipPath
       clipPathUnits="userSpaceOnUse"
       id="clipPath14303"><path
         d="m 0,216 323.37,0 0,-216 L 0,0 0,216 Z"
         id="path14305"
         inkscape:connector-curvature="0" /></clipPath></defs><sodipodi:namedview
     pagecolor="#ffffff"
     bordercolor="#666666"
     borderopacity="1"
     objecttolerance="10"
     gridtolerance="10"
     guidetolerance="10"
     inkscape:pageopacity="0"
     inkscape:pageshadow="2"
     inkscape:window-width="1920"
     inkscape:window-height="1004"
     id="namedview14291"
     showgrid="false"
     inkscape:zoom="0.87407407"
     inkscape:cx="202.10625"
     inkscape:cy="135"
     inkscape:window-x="0"
     inkscape:window-y="24"
     inkscape:window-maximized="1"
     inkscape:current-layer="g14297" /><g
     id="g14297"
     inkscape:groupmode="layer"
     inkscape:label="marchi Unical"
     transform="matrix(1.25,0,0,-1.25,0,150)"><g
       id="g14299"
       transform="translate(-104.33898,-49.423729)"><g
         id="g14301"
         clip-path="url(#clipPath14303)"><g
           id="g14307"
           transform="translate(113.1104,109.6252)"><path
             d="m 0,0 -4.886,0.064 c -0.441,0.005 -0.74,-0.051 -0.895,-0.169 -0.156,-0.12 -0.237,-0.341 -0.24,-0.666 -0.012,-0.875 0.265,-1.515 0.833,-1.921 0.566,-0.406 1.489,-0.618 2.765,-0.634 1.438,-0.019 2.466,0.155 3.084,0.522 0.618,0.366 0.933,0.984 0.944,1.851 C 1.608,-0.742 1.593,-0.57 1.56,-0.437 1.525,-0.304 1.477,-0.211 1.41,-0.159 1.337,-0.107 1.224,-0.07 1.069,-0.047 0.915,-0.023 0.65,-0.009 0.275,-0.004 L 0,0 Z m -6.616,2.595 0.228,-0.003 c 0.052,-0.208 0.141,-0.355 0.267,-0.441 0.126,-0.085 0.329,-0.13 0.61,-0.133 L 1.022,1.932 C 1.304,1.928 1.508,1.968 1.636,2.05 1.764,2.132 1.856,2.276 1.914,2.482 L 2.131,2.479 2.203,0.826 C 2.221,0.416 2.235,0.085 2.245,-0.168 2.256,-0.42 2.261,-0.569 2.26,-0.616 2.249,-1.429 2.142,-2.124 1.937,-2.704 1.731,-3.283 1.416,-3.789 0.988,-4.221 0.553,-4.664 0.051,-4.998 -0.517,-5.224 c -0.567,-0.224 -1.181,-0.333 -1.84,-0.324 -1.352,0.018 -2.413,0.45 -3.18,1.296 -0.769,0.846 -1.144,1.998 -1.124,3.454 l 0.045,3.393 z"
             style="fill:#231f20;fill-opacity:1;fill-rule:nonzero;stroke:none"
             id="path14309"
             inkscape:connector-curvature="0" /></g><g
           id="g14311"
           transform="translate(107.5449,95.8547)"><path
             d="M 0,0 0.221,0.062 C 0.328,-0.123 0.455,-0.239 0.6,-0.286 0.744,-0.333 0.952,-0.318 1.224,-0.243 l 6.294,1.751 c 0.271,0.075 0.456,0.17 0.556,0.285 0.1,0.115 0.148,0.279 0.146,0.493 l 0.208,0.059 1.671,-6.007 -1.727,-0.833 -0.216,0.251 c 0.334,0.417 0.549,0.864 0.643,1.343 0.094,0.478 0.067,0.981 -0.079,1.507 -0.125,0.452 -0.27,0.737 -0.432,0.853 -0.162,0.117 -0.424,0.126 -0.785,0.025 L 5.759,-1.001 5.925,-1.6 c 0.157,-0.564 0.349,-0.978 0.577,-1.244 0.227,-0.264 0.522,-0.42 0.884,-0.466 l 0.08,-0.288 -2.524,-0.701 -0.08,0.287 c 0.299,0.194 0.477,0.463 0.533,0.809 0.055,0.346 -0.003,0.831 -0.177,1.456 L 5.064,-1.194 2.185,-1.995 C 1.831,-2.093 1.624,-2.221 1.564,-2.377 1.505,-2.534 1.543,-2.858 1.681,-3.352 1.847,-3.95 2.088,-4.461 2.404,-4.884 2.721,-5.307 3.133,-5.664 3.64,-5.957 L 3.564,-6.318 1.74,-6.254 0,0 Z"
             style="fill:#231f20;fill-opacity:1;fill-rule:nonzero;stroke:none"
             id="path14313"
             inkscape:connector-curvature="0" /></g><g
           id="g14315"
           transform="translate(112.4072,82.2249)"><path
             d="m 0,0 0.196,0.116 c 0.153,-0.15 0.305,-0.229 0.456,-0.237 0.153,-0.009 0.35,0.059 0.592,0.202 l 5.63,3.315 C 7.015,3.479 7.119,3.55 7.185,3.606 7.251,3.664 7.301,3.726 7.335,3.79 7.372,3.857 7.393,3.936 7.396,4.023 7.398,4.111 7.383,4.213 7.351,4.33 L 7.548,4.446 9.142,1.74 8.944,1.624 C 8.794,1.771 8.646,1.849 8.498,1.857 8.35,1.865 8.151,1.796 7.902,1.649 L 3.041,-1.214 C 2.512,-1.525 2.223,-1.753 2.171,-1.896 2.119,-2.04 2.194,-2.283 2.397,-2.627 2.796,-3.304 3.188,-3.769 3.576,-4.023 3.964,-4.277 4.484,-4.439 5.137,-4.508 L 5.181,-4.802 3.173,-5.387 0,0 Z"
             style="fill:#231f20;fill-opacity:1;fill-rule:nonzero;stroke:none"
             id="path14317"
             inkscape:connector-curvature="0" /></g><g
           id="g14319"
           transform="translate(120.4238,70.5608)"><path
             d="M 0,0 0.161,0.162 C 0.347,0.055 0.514,0.017 0.663,0.047 0.812,0.078 0.986,0.193 1.185,0.393 L 5.789,5.027 C 5.905,5.144 5.987,5.237 6.037,5.31 6.086,5.382 6.119,5.453 6.136,5.525 6.155,5.6 6.154,5.68 6.135,5.766 6.115,5.852 6.075,5.946 6.014,6.051 L 6.175,6.213 8.402,3.999 8.241,3.838 C 8.059,3.941 7.895,3.979 7.75,3.95 7.605,3.92 7.431,3.803 7.228,3.598 L 3.25,-0.404 C 2.817,-0.84 2.595,-1.133 2.582,-1.285 2.568,-1.437 2.703,-1.653 2.985,-1.935 3.542,-2.487 4.041,-2.838 4.48,-2.986 4.92,-3.134 5.464,-3.158 6.113,-3.06 L 6.229,-3.333 4.436,-4.407 0,0 Z"
             style="fill:#231f20;fill-opacity:1;fill-rule:nonzero;stroke:none"
             id="path14321"
             inkscape:connector-curvature="0" /></g><g
           id="g14323"
           transform="translate(134.1416,63.0227)"><path
             d="M 0,0 1.942,-1.124 3.012,2.914 0,0 Z m -3.374,-1.515 0.114,0.199 c 0.242,-0.041 0.517,0.017 0.823,0.176 0.307,0.16 0.653,0.42 1.04,0.784 L 3.674,4.515 5.109,3.685 3.329,-3.232 C 3.172,-3.832 3.088,-4.264 3.077,-4.528 3.065,-4.793 3.117,-4.976 3.229,-5.077 l -0.111,-0.193 -2.45,1.417 0.115,0.198 c 0.112,-0.01 0.208,0.003 0.289,0.039 0.082,0.036 0.146,0.093 0.191,0.171 0.031,0.053 0.06,0.114 0.087,0.179 0.027,0.067 0.052,0.14 0.077,0.22 l 0.317,1.204 -2.283,1.321 -0.323,-0.314 C -0.965,-0.934 -1.054,-1.03 -1.131,-1.123 -1.207,-1.217 -1.267,-1.301 -1.31,-1.375 -1.42,-1.564 -1.467,-1.753 -1.45,-1.94 c 0.015,-0.188 0.094,-0.373 0.234,-0.559 l -0.114,-0.198 -2.044,1.182 z"
             style="fill:#231f20;fill-opacity:1;fill-rule:nonzero;stroke:none"
             id="path14325"
             inkscape:connector-curvature="0" /></g><g
           id="g14327"
           transform="translate(158.126,54.7991)"><path
             d="m 0,0 0.38,-0.166 c -0.409,-0.779 -0.946,-1.358 -1.609,-1.739 -0.662,-0.381 -1.379,-0.522 -2.15,-0.424 -0.403,0.051 -0.778,0.164 -1.127,0.338 -0.348,0.174 -0.655,0.402 -0.923,0.683 -0.461,0.493 -0.786,1.076 -0.974,1.748 -0.188,0.674 -0.231,1.413 -0.129,2.214 0.079,0.628 0.253,1.218 0.519,1.771 0.268,0.553 0.592,0.996 0.973,1.33 0.452,0.399 0.936,0.675 1.451,0.825 0.516,0.151 1.091,0.187 1.727,0.107 C -1.351,6.621 -0.879,6.48 -0.445,6.265 -0.012,6.048 0.369,5.761 0.697,5.404 L -0.128,3.743 -0.424,3.828 C -0.499,4.479 -0.704,5.015 -1.041,5.434 -1.378,5.852 -1.79,6.093 -2.278,6.154 -2.798,6.221 -3.24,6.018 -3.604,5.546 -3.97,5.074 -4.209,4.397 -4.32,3.514 -4.489,2.185 -4.404,1.112 -4.064,0.298 c 0.339,-0.816 0.882,-1.271 1.63,-1.365 0.485,-0.062 0.941,10e-4 1.368,0.186 C -0.639,-0.694 -0.283,-0.401 0,0"
             style="fill:#231f20;fill-opacity:1;fill-rule:nonzero;stroke:none"
             id="path14329"
             inkscape:connector-curvature="0" /></g><g
           id="g14331"
           transform="translate(166.5488,55.4495)"><path
             d="M 0,0 2.227,0.278 0.64,4.143 0,0 Z m -1.773,-3.245 -0.029,0.226 c 0.218,0.115 0.402,0.328 0.549,0.639 0.149,0.312 0.267,0.73 0.355,1.252 l 1.097,6.945 1.646,0.206 2.76,-6.586 C 4.842,-1.137 5.036,-1.531 5.187,-1.749 5.339,-1.966 5.49,-2.081 5.641,-2.094 L 5.669,-2.314 2.86,-2.666 2.832,-2.439 c 0.095,0.059 0.164,0.127 0.207,0.206 0.044,0.079 0.06,0.162 0.049,0.252 C 3.08,-1.92 3.067,-1.854 3.049,-1.786 3.03,-1.718 3.006,-1.644 2.977,-1.564 L 2.502,-0.413 -0.114,-0.74 -0.183,-1.187 c -0.021,-0.14 -0.035,-0.27 -0.04,-0.391 -0.004,-0.12 -0.001,-0.224 0.01,-0.309 0.027,-0.217 0.104,-0.395 0.23,-0.535 0.125,-0.14 0.3,-0.241 0.524,-0.304 l 0.028,-0.226 -2.342,-0.293 z"
             style="fill:#231f20;fill-opacity:1;fill-rule:nonzero;stroke:none"
             id="path14333"
             inkscape:connector-curvature="0" /></g><g
           id="g14335"
           transform="translate(179.3555,55.0618)"><path
             d="M 0,0 -0.086,0.212 C 0.085,0.341 0.186,0.479 0.216,0.629 0.246,0.778 0.208,0.983 0.103,1.243 l -2.457,6.055 c -0.062,0.151 -0.116,0.264 -0.163,0.338 -0.046,0.074 -0.099,0.133 -0.16,0.176 -0.06,0.046 -0.135,0.078 -0.22,0.093 -0.087,0.016 -0.191,0.016 -0.311,0 l -0.086,0.212 2.91,1.181 0.086,-0.211 C -0.465,8.959 -0.563,8.823 -0.594,8.679 -0.623,8.534 -0.584,8.327 -0.476,8.06 L 1.646,2.831 C 1.877,2.263 2.06,1.942 2.194,1.871 2.328,1.799 2.58,1.838 2.949,1.987 3.677,2.283 4.195,2.604 4.503,2.95 4.812,3.297 5.048,3.788 5.212,4.423 L 5.509,4.424 5.793,2.351 0,0 Z"
             style="fill:#231f20;fill-opacity:1;fill-rule:nonzero;stroke:none"
             id="path14337"
             inkscape:connector-curvature="0" /></g><g
           id="g14339"
           transform="translate(191.6846,64.7502)"><path
             d="M 0,0 1.794,1.349 -1.505,3.912 0,0 Z m 0.076,-3.697 -0.138,0.182 c 0.133,0.207 0.186,0.483 0.16,0.827 -0.027,0.344 -0.132,0.765 -0.316,1.262 L -2.72,5.146 -1.395,6.144 4.276,1.802 C 4.767,1.423 5.132,1.177 5.371,1.063 5.61,0.95 5.798,0.925 5.936,0.989 L 6.069,0.812 3.808,-0.89 3.671,-0.707 c 0.053,0.099 0.078,0.192 0.077,0.282 -0.001,0.089 -0.029,0.17 -0.083,0.241 -0.037,0.05 -0.081,0.101 -0.131,0.151 C 3.483,0.018 3.426,0.069 3.361,0.123 L 2.377,0.886 0.27,-0.699 0.433,-1.12 c 0.05,-0.133 0.104,-0.252 0.16,-0.359 0.055,-0.107 0.109,-0.195 0.161,-0.264 0.132,-0.175 0.287,-0.291 0.466,-0.35 0.177,-0.058 0.38,-0.059 0.606,-0.002 l 0.137,-0.182 -1.887,-1.42 z"
             style="fill:#231f20;fill-opacity:1;fill-rule:nonzero;stroke:none"
             id="path14341"
             inkscape:connector-curvature="0" /></g><g
           id="g14343"
           transform="translate(201.2324,75.5852)"><path
             d="m 0,0 2.395,-1.827 c 0.21,-0.161 0.398,-0.221 0.563,-0.179 0.164,0.041 0.35,0.197 0.556,0.468 0.397,0.521 0.573,1.011 0.527,1.469 C 3.995,0.389 3.727,0.805 3.235,1.18 2.751,1.549 2.269,1.679 1.789,1.567 1.31,1.457 0.848,1.111 0.404,0.531 L 0,0 Z m -0.508,0.387 0.113,0.149 C 0.127,1.22 0.401,1.789 0.43,2.244 0.457,2.699 0.247,3.098 -0.199,3.438 -0.585,3.732 -0.986,3.842 -1.404,3.768 -1.822,3.693 -2.19,3.446 -2.511,3.027 -2.729,2.741 -2.83,2.521 -2.816,2.365 -2.803,2.21 -2.622,1.999 -2.273,1.734 l 0.246,-0.188 1.519,-1.159 z m 2.457,-5.029 -0.181,0.139 c 0.082,0.197 0.098,0.368 0.047,0.512 -0.049,0.144 -0.186,0.302 -0.41,0.471 L -3.789,0.443 C -4.013,0.613 -4.2,0.704 -4.353,0.714 -4.504,0.725 -4.665,0.664 -4.834,0.532 l -0.172,0.132 1.555,2.174 0.221,0.289 c 0.822,1.077 1.597,1.787 2.326,2.127 C -0.175,5.595 0.471,5.551 1.033,5.122 1.418,4.828 1.631,4.436 1.672,3.945 1.713,3.455 1.583,2.874 1.283,2.204 2.004,2.75 2.649,3.072 3.219,3.171 3.787,3.27 4.297,3.147 4.748,2.804 5.316,2.37 5.583,1.796 5.548,1.081 5.514,0.365 5.178,-0.41 4.54,-1.245 L 1.949,-4.642 Z"
             style="fill:#231f20;fill-opacity:1;fill-rule:nonzero;stroke:none"
             id="path14345"
             inkscape:connector-curvature="0" /></g><g
           id="g14347"
           transform="translate(208.6484,88.2239)"><path
             d="M 0,0 0.106,0.279 C 0.437,1.148 0.536,1.825 0.401,2.312 0.267,2.798 -0.118,3.161 -0.753,3.403 -1.355,3.633 -1.868,3.661 -2.292,3.488 -2.715,3.315 -3.033,2.949 -3.246,2.391 -3.396,1.996 -3.445,1.71 -3.395,1.532 -3.344,1.354 -3.164,1.206 -2.857,1.089 L 0,0 Z M 3.214,-3.908 3,-3.827 c 0.023,0.213 -0.01,0.382 -0.099,0.505 -0.088,0.124 -0.264,0.236 -0.527,0.336 l -6.105,2.326 c -0.263,0.1 -0.468,0.134 -0.618,0.1 -0.148,-0.033 -0.285,-0.136 -0.409,-0.31 l -0.203,0.077 0.723,2.227 c 0.079,0.25 0.152,0.476 0.219,0.68 0.068,0.204 0.122,0.362 0.164,0.471 0.425,1.117 0.988,1.922 1.687,2.414 0.7,0.492 1.419,0.598 2.156,0.316 C 0.503,5.119 0.883,4.776 1.129,4.285 1.374,3.795 1.477,3.173 1.437,2.419 2.473,2.342 3.382,2.36 4.164,2.477 4.946,2.593 5.579,2.799 6.064,3.095 L 6.239,3.027 C 5.875,2.172 5.225,1.522 4.287,1.081 3.351,0.641 2.208,0.446 0.861,0.5 0.814,0.354 0.779,0.244 0.755,0.17 0.73,0.096 0.707,0.027 0.684,-0.034 L 0.608,-0.231 3.066,-1.168 c 0.267,-0.102 0.473,-0.138 0.619,-0.107 0.144,0.03 0.28,0.132 0.405,0.306 L 4.303,-1.05 3.214,-3.908 Z"
             style="fill:#231f20;fill-opacity:1;fill-rule:nonzero;stroke:none"
             id="path14349"
             inkscape:connector-curvature="0" /></g><g
           id="g14351"
           transform="translate(215.9531,97.7258)"><path
             d="M 0,0 -0.226,0.033 C -0.249,0.246 -0.317,0.403 -0.431,0.505 -0.544,0.606 -0.74,0.679 -1.019,0.72 L -7.48,1.679 C -7.639,1.702 -7.761,1.713 -7.847,1.71 -7.932,1.706 -8.008,1.69 -8.075,1.661 -8.151,1.629 -8.219,1.579 -8.278,1.513 -8.337,1.447 -8.391,1.36 -8.438,1.253 l -0.214,0.031 0.461,3.107 0.213,-0.032 C -7.953,4.15 -7.886,3.996 -7.776,3.896 -7.667,3.798 -7.469,3.727 -7.183,3.685 l 6.462,-0.96 c 0.283,-0.041 0.492,-0.032 0.627,0.032 0.136,0.062 0.245,0.19 0.329,0.383 L 0.462,3.106 0,0 Z"
             style="fill:#231f20;fill-opacity:1;fill-rule:nonzero;stroke:none"
             id="path14353"
             inkscape:connector-curvature="0" /></g><g
           id="g14355"
           transform="translate(213.7949,108.8)"><path
             d="M 0,0 -0.137,2.24 -4.094,0.899 0,0 Z M 3.127,-1.975 2.898,-1.988 C 2.799,-1.764 2.599,-1.567 2.296,-1.4 1.994,-1.233 1.586,-1.089 1.069,-0.968 L -5.793,0.566 -5.895,2.222 0.854,4.561 C 1.44,4.761 1.847,4.93 2.073,5.067 2.3,5.204 2.424,5.348 2.446,5.498 L 2.668,5.512 2.842,2.687 2.613,2.673 C 2.561,2.771 2.496,2.845 2.421,2.893 2.346,2.94 2.263,2.962 2.173,2.957 2.111,2.953 2.045,2.944 1.976,2.93 1.905,2.916 1.831,2.896 1.75,2.872 L 0.571,2.471 0.732,-0.16 1.173,-0.257 c 0.139,-0.03 0.268,-0.052 0.388,-0.064 0.121,-0.012 0.223,-0.016 0.309,-0.011 0.218,0.014 0.401,0.079 0.549,0.195 0.147,0.117 0.259,0.285 0.336,0.505 l 0.227,0.014 0.145,-2.357 z"
             style="fill:#231f20;fill-opacity:1;fill-rule:nonzero;stroke:none"
             id="path14357"
             inkscape:connector-curvature="0" /></g><g
           id="g14359"
           transform="translate(118.0171,133.5837)"><path
             d="M 0,0 C 0.727,-0.46 1.352,-0.67 1.875,-0.631 2.399,-0.593 2.83,-0.306 3.168,0.229 3.322,0.474 3.422,0.721 3.466,0.97 3.511,1.219 3.498,1.46 3.428,1.694 3.357,1.947 3.22,2.181 3.016,2.396 2.812,2.609 2.431,2.894 1.872,3.246 L 1.525,3.465 -1.06,5.1 C -1.466,5.356 -1.827,5.503 -2.143,5.541 -2.458,5.579 -2.727,5.508 -2.946,5.328 L -3.13,5.444 -1.918,7.36 -1.734,7.245 C -1.773,6.95 -1.729,6.698 -1.603,6.489 -1.476,6.279 -1.198,6.039 -0.769,5.768 L 2.782,3.523 C 3.564,3.028 4.025,2.414 4.164,1.68 4.303,0.944 4.107,0.158 3.577,-0.681 3.31,-1.104 2.985,-1.46 2.604,-1.75 2.222,-2.04 1.812,-2.243 1.378,-2.361 1.042,-2.454 0.7,-2.466 0.354,-2.396 c -0.347,0.068 -0.708,0.22 -1.081,0.457 l -4.12,2.604 C -4.982,0.751 -5.09,0.81 -5.169,0.841 -5.248,0.873 -5.325,0.889 -5.398,0.89 -5.481,0.891 -5.562,0.873 -5.644,0.836 -5.725,0.8 -5.809,0.741 -5.896,0.663 L -6.079,0.778 -4.4,3.434 -4.218,3.317 C -4.279,3.116 -4.28,2.948 -4.221,2.813 -4.16,2.679 -4.008,2.533 -3.764,2.379 L 0,0 Z"
             style="fill:#231f20;fill-opacity:1;fill-rule:nonzero;stroke:none"
             id="path14361"
             inkscape:connector-curvature="0" /></g><g
           id="g14363"
           transform="translate(126.4595,139.7976)"><path
             d="m 0,0 -0.155,0.168 c 0.107,0.311 0.098,0.618 -0.027,0.924 -0.124,0.304 -0.514,0.813 -1.171,1.526 L -4.104,5.604 C -4.36,5.883 -4.638,6.084 -4.937,6.207 -5.236,6.33 -5.512,6.357 -5.763,6.29 l -0.147,0.16 1.754,1.615 6.752,-1.5 -2.537,2.754 c -0.326,0.354 -0.636,0.589 -0.931,0.708 -0.295,0.119 -0.572,0.119 -0.831,0.003 l -0.148,0.159 1.668,1.537 0.147,-0.16 C -0.149,11.292 -0.172,11.037 -0.104,10.802 -0.036,10.567 0.169,10.263 0.514,9.89 L 5.206,4.796 4.599,4.235 -3.498,6.011 -0.572,2.835 C -0.125,2.35 0.266,2.021 0.599,1.85 0.932,1.679 1.248,1.641 1.548,1.736 L 1.702,1.568 0,0 Z"
             style="fill:#231f20;fill-opacity:1;fill-rule:nonzero;stroke:none"
             id="path14365"
             inkscape:connector-curvature="0" /></g><g
           id="g14367"
           transform="translate(135.481,147.2771)"><path
             d="m 0,0 -0.119,0.195 c 0.147,0.155 0.224,0.308 0.23,0.46 0.005,0.153 -0.065,0.349 -0.212,0.588 l -3.405,5.576 c -0.083,0.137 -0.153,0.237 -0.211,0.3 -0.056,0.064 -0.118,0.112 -0.184,0.146 -0.074,0.037 -0.155,0.057 -0.244,0.06 C -4.232,7.328 -4.334,7.313 -4.446,7.281 L -4.56,7.466 -1.879,9.103 -1.767,8.918 C -1.911,8.766 -1.986,8.615 -1.992,8.468 -1.998,8.319 -1.926,8.122 -1.775,7.876 L 1.63,2.3 C 1.778,2.057 1.92,1.903 2.056,1.839 2.19,1.775 2.359,1.772 2.561,1.832 L 2.68,1.637 0,0 Z"
             style="fill:#231f20;fill-opacity:1;fill-rule:nonzero;stroke:none"
             id="path14369"
             inkscape:connector-curvature="0" /></g><g
           id="g14371"
           transform="translate(144.3101,151.7498)"><path
             d="m 0,0 -4.436,5.525 c -0.449,0.562 -0.783,0.936 -1.001,1.123 -0.218,0.187 -0.41,0.277 -0.574,0.27 l -0.076,0.203 2.786,1.047 0.076,-0.203 C -3.328,7.863 -3.392,7.766 -3.414,7.671 -3.438,7.577 -3.426,7.468 -3.379,7.344 c 0.027,-0.062 0.061,-0.125 0.1,-0.192 0.04,-0.066 0.107,-0.165 0.202,-0.297 L 0.391,2.375 -0.046,6.969 C -0.062,7.154 -0.088,7.33 -0.125,7.496 -0.162,7.661 -0.208,7.817 -0.263,7.963 -0.356,8.212 -0.479,8.401 -0.63,8.532 -0.781,8.663 -0.957,8.733 -1.156,8.741 L -1.232,8.944 1.032,9.796 1.109,9.593 C 0.903,9.361 0.764,9.062 0.689,8.693 0.615,8.325 0.603,7.858 0.652,7.293 L 1.278,0.48 0,0 Z"
             style="fill:#231f20;fill-opacity:1;fill-rule:nonzero;stroke:none"
             id="path14373"
             inkscape:connector-curvature="0" /></g><g
           id="g14375"
           transform="translate(152.7173,154.3425)"><path
             d="m 0,0 -0.026,0.227 c 0.2,0.078 0.334,0.185 0.402,0.321 0.069,0.136 0.087,0.343 0.055,0.622 L -0.321,7.66 C -0.354,7.939 -0.419,8.138 -0.518,8.254 -0.615,8.37 -0.771,8.443 -0.982,8.474 L -1.007,8.689 5.186,9.407 5.74,7.572 5.46,7.398 C 5.1,7.793 4.69,8.074 4.232,8.241 3.774,8.408 3.274,8.46 2.731,8.397 2.266,8.344 1.962,8.245 1.821,8.104 1.681,7.961 1.632,7.704 1.675,7.331 L 1.884,5.532 2.5,5.604 C 3.082,5.672 3.522,5.797 3.819,5.981 4.116,6.165 4.315,6.432 4.417,6.782 L 4.714,6.816 5.015,4.215 4.718,4.181 C 4.574,4.506 4.336,4.723 4.003,4.832 3.67,4.94 3.181,4.958 2.537,4.883 L 1.967,4.816 2.311,1.849 C 2.353,1.483 2.446,1.26 2.592,1.176 2.737,1.093 3.064,1.08 3.572,1.14 4.189,1.211 4.731,1.37 5.198,1.617 5.665,1.863 6.082,2.215 6.45,2.671 L 6.796,2.539 6.449,0.747 0,0 Z"
             style="fill:#231f20;fill-opacity:1;fill-rule:nonzero;stroke:none"
             id="path14377"
             inkscape:connector-curvature="0" /></g><g
           id="g14379"
           transform="translate(167.2896,159.1521)"><path
             d="M 0,0 0.296,-0.039 C 1.218,-0.161 1.899,-0.101 2.342,0.143 2.783,0.386 3.049,0.845 3.138,1.519 3.222,2.157 3.131,2.663 2.865,3.035 2.599,3.407 2.17,3.632 1.577,3.71 1.159,3.766 0.869,3.747 0.707,3.656 0.545,3.565 0.443,3.357 0.4,3.032 L 0,0 Z m -3.061,-4.029 0.03,0.226 c 0.213,0.028 0.369,0.099 0.468,0.213 0.1,0.115 0.168,0.313 0.206,0.591 l 0.854,6.478 c 0.036,0.278 0.022,0.486 -0.045,0.623 -0.067,0.136 -0.199,0.246 -0.397,0.327 l 0.028,0.215 2.333,-0.19 C 0.678,4.436 0.916,4.417 1.13,4.398 1.344,4.38 1.51,4.363 1.626,4.348 2.811,4.191 3.724,3.83 4.363,3.263 5.004,2.695 5.272,2.021 5.169,1.238 5.098,0.692 4.851,0.243 4.43,-0.109 4.01,-0.461 3.428,-0.705 2.685,-0.839 2.849,-1.865 3.077,-2.746 3.371,-3.479 3.664,-4.214 4.011,-4.782 4.41,-5.187 L 4.386,-5.372 c -0.917,0.156 -1.698,0.64 -2.344,1.45 -0.646,0.81 -1.099,1.876 -1.357,3.199 -0.152,0.012 -0.267,0.022 -0.345,0.028 -0.078,0.007 -0.151,0.013 -0.216,0.022 l -0.209,0.027 -0.344,-2.607 c -0.038,-0.283 -0.024,-0.492 0.038,-0.626 0.064,-0.135 0.194,-0.242 0.392,-0.323 l -0.029,-0.227 -3.033,0.4 z"
             style="fill:#231f20;fill-opacity:1;fill-rule:nonzero;stroke:none"
             id="path14381"
             inkscape:connector-curvature="0" /></g><g
           id="g14383"
           transform="translate(176.6646,153.9431)"><path
             d="M 0,0 1.261,1.382 1.496,1.168 C 1.371,0.414 1.433,-0.247 1.681,-0.815 c 0.247,-0.569 0.643,-0.962 1.187,-1.18 0.388,-0.155 0.75,-0.157 1.086,-0.006 0.337,0.151 0.585,0.427 0.744,0.826 0.119,0.297 0.131,0.585 0.034,0.863 C 4.636,-0.033 4.313,0.412 3.767,1.022 3.695,1.105 3.59,1.226 3.45,1.382 2.741,2.176 2.318,2.749 2.183,3.102 2.087,3.347 2.043,3.6 2.052,3.861 2.06,4.123 2.118,4.391 2.227,4.662 2.519,5.392 3.004,5.883 3.683,6.137 4.36,6.392 5.109,6.354 5.929,6.026 6.346,5.859 6.736,5.612 7.1,5.285 7.464,4.959 7.797,4.559 8.099,4.084 L 6.922,2.832 6.721,3.008 C 6.847,3.605 6.82,4.129 6.641,4.58 6.461,5.03 6.156,5.342 5.725,5.515 5.369,5.657 5.039,5.674 4.734,5.564 4.43,5.455 4.216,5.246 4.092,4.937 3.972,4.637 3.971,4.337 4.089,4.04 4.207,3.742 4.51,3.34 4.997,2.833 5.038,2.787 5.097,2.724 5.174,2.643 5.973,1.801 6.459,1.162 6.634,0.726 6.765,0.412 6.835,0.103 6.843,-0.203 6.851,-0.51 6.797,-0.806 6.682,-1.093 6.374,-1.861 5.84,-2.374 5.078,-2.631 4.316,-2.888 3.486,-2.836 2.587,-2.476 2.024,-2.25 1.526,-1.93 1.092,-1.514 0.656,-1.098 0.292,-0.593 0,0"
             style="fill:#231f20;fill-opacity:1;fill-rule:nonzero;stroke:none"
             id="path14385"
             inkscape:connector-curvature="0" /></g><g
           id="g14387"
           transform="translate(185.8394,148.4646)"><path
             d="M 0,0 0.123,0.193 C 0.326,0.128 0.498,0.126 0.637,0.188 0.776,0.25 0.921,0.399 1.072,0.637 l 3.51,5.51 C 4.668,6.282 4.727,6.39 4.759,6.469 4.791,6.548 4.807,6.625 4.808,6.698 4.81,6.78 4.792,6.862 4.756,6.943 4.719,7.024 4.661,7.108 4.583,7.196 L 4.699,7.379 7.349,5.691 7.231,5.509 C 7.031,5.571 6.863,5.573 6.728,5.514 6.593,5.454 6.447,5.302 6.292,5.059 L 2.782,-0.452 C 2.629,-0.692 2.554,-0.888 2.556,-1.037 2.558,-1.187 2.63,-1.339 2.771,-1.494 L 2.648,-1.687 0,0 Z"
             style="fill:#231f20;fill-opacity:1;fill-rule:nonzero;stroke:none"
             id="path14389"
             inkscape:connector-curvature="0" /></g><g
           id="g14391"
           transform="translate(193.2642,143.0427)"><path
             d="M 0,0 0.157,0.166 C 0.342,0.065 0.507,0.033 0.652,0.067 0.798,0.102 0.969,0.223 1.165,0.43 L 5.276,4.768 C 5.591,5.099 5.762,5.331 5.79,5.463 5.818,5.595 5.759,5.73 5.611,5.87 5.396,6.074 5.048,6.227 4.567,6.327 4.087,6.428 3.576,6.445 3.036,6.382 L 2.91,6.614 4.562,7.729 9.76,2.803 8.66,1.165 8.412,1.287 C 8.521,1.781 8.526,2.247 8.431,2.682 8.335,3.117 8.152,3.463 7.883,3.718 7.718,3.874 7.569,3.941 7.436,3.92 7.303,3.897 7.099,3.742 6.824,3.453 L 6.426,3.032 2.637,-0.966 C 2.44,-1.172 2.329,-1.35 2.303,-1.496 2.276,-1.644 2.318,-1.807 2.428,-1.986 L 2.271,-2.152 0,0 Z"
             style="fill:#231f20;fill-opacity:1;fill-rule:nonzero;stroke:none"
             id="path14393"
             inkscape:connector-curvature="0" /></g><g
           id="g14395"
           transform="translate(211.1216,139.2898)"><path
             d="m 0,0 -0.524,-2.23 -0.287,0.449 -0.175,2.063 c -0.019,0.247 -0.01,0.427 0.025,0.537 0.036,0.112 0.107,0.201 0.212,0.268 0.132,0.084 0.266,0.11 0.4,0.081 0.135,-0.03 0.245,-0.11 0.328,-0.242 0.064,-0.1 0.097,-0.221 0.1,-0.364 C 0.083,0.418 0.057,0.23 0,0 m -7.642,-3.35 1.206,-1.891 2.811,3.091 -4.017,-1.2 z m -3.692,0.211 0.192,0.123 c 0.197,-0.148 0.468,-0.222 0.813,-0.222 0.345,0 0.772,0.072 1.283,0.217 l 6.745,1.986 0.892,-1.399 -4.768,-5.318 c -0.416,-0.459 -0.689,-0.804 -0.821,-1.034 -0.131,-0.23 -0.17,-0.415 -0.117,-0.558 l -0.188,-0.119 -1.521,2.387 0.193,0.122 c 0.094,-0.06 0.186,-0.093 0.276,-0.099 0.088,-0.006 0.17,0.016 0.247,0.064 0.052,0.034 0.106,0.074 0.16,0.12 0.053,0.046 0.11,0.098 0.169,0.159 l 0.837,0.923 -1.418,2.224 -0.432,-0.13 c -0.136,-0.04 -0.26,-0.084 -0.371,-0.132 -0.11,-0.048 -0.202,-0.095 -0.275,-0.141 -0.184,-0.118 -0.313,-0.263 -0.385,-0.436 -0.073,-0.174 -0.089,-0.375 -0.049,-0.605 l -0.192,-0.123 -1.27,1.991 z"
             style="fill:#231f20;fill-opacity:1;fill-rule:nonzero;stroke:none"
             id="path14397"
             inkscape:connector-curvature="0" /></g><g
           id="g14399"
           transform="translate(112.2802,122.7397)"><path
             d="M 0,0 C 0,1.251 1.014,2.266 2.266,2.266 3.517,2.266 4.531,1.251 4.531,0 4.531,-1.251 3.517,-2.266 2.266,-2.266 1.014,-2.266 0,-1.251 0,0"
             style="fill:#b71e24;fill-opacity:1;fill-rule:nonzero;stroke:none"
             id="path14401"
             inkscape:connector-curvature="0" /></g><g
           id="g14403"
           transform="translate(206.409,122.7397)"><path
             d="M 0,0 C 0,1.251 1.014,2.266 2.266,2.266 3.517,2.266 4.531,1.251 4.531,0 4.531,-1.251 3.517,-2.266 2.266,-2.266 1.014,-2.266 0,-1.251 0,0"
             style="fill:#b71e24;fill-opacity:1;fill-rule:nonzero;stroke:none"
             id="path14405"
             inkscape:connector-curvature="0" /></g><path
           d="m 140.587,95.982 32.659,0 0,-5.445 -32.659,0 0,5.445 z"
           style="fill:#b71e24;fill-opacity:1;fill-rule:evenodd;stroke:none"
           id="path14407"
           inkscape:connector-curvature="0" /><path
           d="m 140.587,102.784 32.659,0 0,-5.447 -32.659,0 0,5.447 z"
           style="fill:#b71e24;fill-opacity:1;fill-rule:evenodd;stroke:none"
           id="path14409"
           inkscape:connector-curvature="0" /><path
           d="m 140.587,109.587 32.659,0 0,-5.444 -32.659,0 0,5.444 z"
           style="fill:#b71e24;fill-opacity:1;fill-rule:evenodd;stroke:none"
           id="path14411"
           inkscape:connector-curvature="0" /><path
           d="m 140.587,116.392 32.659,0 0,-5.442 -32.659,0 0,5.442 z"
           style="fill:#b71e24;fill-opacity:1;fill-rule:evenodd;stroke:none"
           id="path14413"
           inkscape:connector-curvature="0" /><path
           d="m 140.587,123.194 32.659,0 0,-5.439 -32.659,0 0,5.439 z"
           style="fill:#b71e24;fill-opacity:1;fill-rule:evenodd;stroke:none"
           id="path14415"
           inkscape:connector-curvature="0" /><g
           id="g14417"
           transform="translate(174.6097,90.5372)"><path
             d="M 0,0 12.248,12.247 0,12.247 0,0 Z"
             style="fill:#151317;fill-opacity:1;fill-rule:evenodd;stroke:none"
             id="path14419"
             inkscape:connector-curvature="0" /></g><path
           d="m 174.61,109.587 16.294,0 0,-5.444 -16.294,0 0,5.444 z"
           style="fill:#8a8e90;fill-opacity:1;fill-rule:evenodd;stroke:none"
           id="path14421"
           inkscape:connector-curvature="0" /><path
           d="m 174.61,116.392 16.294,0 0,-5.442 -16.294,0 0,5.442 z"
           style="fill:#8a8e90;fill-opacity:1;fill-rule:evenodd;stroke:none"
           id="path14423"
           inkscape:connector-curvature="0" /></g></g></g></svg>