<?xml version="1.0" encoding="UTF-8" standalone="no"?>
<!-- Created with Inkscape (http://www.inkscape.org/) -->

<svg
   xmlns:dc="http://purl.org/dc/elements/1.1/"
   xmlns:cc="http://creativecommons.org/ns#"
   xmlns:rdf="http://www.w3.org/1999/02/22-rdf-syntax-ns#"
   xmlns:svg="http://www.w3.org/2000/svg"
   xmlns="http://www.w3.org/2000/svg"
   xmlns:sodipodi="http://sodipodi.sourceforge.net/DTD/sodipodi-0.dtd"
   xmlns:inkscape="http://www.inkscape.org/namespaces/inkscape"
   id="svg12731"
   version="1.1"
   inkscape:version="0.91 r13725"
   xml:space="preserve"
   width="443.01251"
   height="240"
   viewBox="0 0 443.01251 240"
   sodipodi:docname="logo11.svg"><metadata
     id="metadata12737"><rdf:RDF><cc:Work
         rdf:about=""><dc:format>image/svg+xml</dc:format><dc:type
           rdf:resource="http://purl.org/dc/dcmitype/StillImage" /><dc:title></dc:title></cc:Work></rdf:RDF></metadata><defs
     id="defs12735"><clipPath
       clipPathUnits="userSpaceOnUse"
       id="clipPath12765"><path
         d="m 0,192 354.41,0 0,-192 L 0,0 0,192 Z"
         id="path12767"
         inkscape:connector-curvature="0" /></clipPath></defs><sodipodi:namedview
     pagecolor="#ffffff"
     bordercolor="#666666"
     borderopacity="1"
     objecttolerance="10"
     gridtolerance="10"
     guidetolerance="10"
     inkscape:pageopacity="0"
     inkscape:pageshadow="2"
     inkscape:window-width="1920"
     inkscape:window-height="1004"
     id="namedview12733"
     showgrid="false"
     inkscape:zoom="0.98333333"
     inkscape:cx="221.50626"
     inkscape:cy="120"
     inkscape:window-x="0"
     inkscape:window-y="24"
     inkscape:window-maximized="1"
     inkscape:current-layer="g12739" /><g
     id="g12739"
     inkscape:groupmode="layer"
     inkscape:label="marchi Unical"
     transform="matrix(1.25,0,0,-1.25,0,240)"><path
       d="m 75.057,104.228 32.118,0 0,-5.353 -32.118,0 0,5.353 z"
       style="fill:#231f20;fill-opacity:1;fill-rule:evenodd;stroke:none"
       id="path12741"
       inkscape:connector-curvature="0" /><path
       d="m 75.057,110.914 32.118,0 0,-5.356 -32.118,0 0,5.356 z"
       style="fill:#231f20;fill-opacity:1;fill-rule:evenodd;stroke:none"
       id="path12743"
       inkscape:connector-curvature="0" /><path
       d="m 75.057,117.604 32.118,0 0,-5.353 -32.118,0 0,5.353 z"
       style="fill:#231f20;fill-opacity:1;fill-rule:evenodd;stroke:none"
       id="path12745"
       inkscape:connector-curvature="0" /><path
       d="m 75.057,124.299 32.118,0 0,-5.352 -32.118,0 0,5.352 z"
       style="fill:#231f20;fill-opacity:1;fill-rule:evenodd;stroke:none"
       id="path12747"
       inkscape:connector-curvature="0" /><path
       d="m 75.057,130.987 32.118,0 0,-5.352 -32.118,0 0,5.352 z"
       style="fill:#231f20;fill-opacity:1;fill-rule:evenodd;stroke:none"
       id="path12749"
       inkscape:connector-curvature="0" /><g
       id="g12751"
       transform="translate(120.561,110.914)"><path
         d="m 0,0 -12.047,0 0,-12.04 L 0,0 Z m -1.208,-0.5 -10.339,-10.333 0,10.333 10.339,0 z"
         style="fill:#231f20;fill-opacity:1;fill-rule:nonzero;stroke:none"
         id="path12753"
         inkscape:connector-curvature="0" /></g><path
       d="m 124.534,117.604 -16.02,0 0,-5.353 16.02,0 0,5.353 z m -0.5,-4.853 -15.02,0 0,4.353 15.02,0 0,-4.353 z"
       style="fill:#231f20;fill-opacity:1;fill-rule:nonzero;stroke:none"
       id="path12755"
       inkscape:connector-curvature="0" /><path
       d="m 124.534,124.299 -16.02,0 0,-5.352 16.02,0 0,5.352 z m -0.5,-4.852 -15.02,0 0,4.352 15.02,0 0,-4.352 z"
       style="fill:#231f20;fill-opacity:1;fill-rule:nonzero;stroke:none"
       id="path12757"
       inkscape:connector-curvature="0" /><path
       d="m 132.295,61.37 0.499,0 0,69.618 -0.499,0 0,-69.618 z"
       style="fill:#231f20;fill-opacity:1;fill-rule:nonzero;stroke:none"
       id="path12759"
       inkscape:connector-curvature="0" /><g
       id="g12761"><g
         id="g12763"
         clip-path="url(#clipPath12765)"><g
           id="g12769"
           transform="translate(146.7523,105.6346)"><path
             d="m 0,0 c -1.214,0 -2.307,0.189 -3.246,0.562 -0.95,0.377 -1.724,0.928 -2.3,1.637 -0.405,0.516 -0.699,1.143 -0.875,1.865 -0.17,0.708 -0.257,1.826 -0.257,3.321 l 0,8.261 c 0,0.729 -0.079,1.25 -0.235,1.547 -0.134,0.256 -0.341,0.381 -0.652,0.394 l -0.24,0.01 0,0.957 5.301,0 0,-0.957 -0.239,-0.01 C -3.055,17.574 -3.262,17.453 -3.395,17.204 -3.55,16.915 -3.629,16.39 -3.629,15.646 l 0,-8.751 c 0,-1.982 0.331,-3.387 0.985,-4.175 0.641,-0.774 1.768,-1.166 3.351,-1.166 0.749,0 1.398,0.079 1.93,0.235 C 3.159,1.941 3.63,2.182 4.036,2.504 4.549,2.922 4.918,3.507 5.129,4.24 5.35,4.998 5.461,6.33 5.461,8.199 l 0,5.83 c 0,1.174 -0.131,2.062 -0.391,2.64 -0.24,0.538 -0.603,0.839 -1.11,0.921 l -0.21,0.034 0,0.93 4.641,0 0,-0.902 -0.177,-0.054 C 7.711,17.444 7.365,17.125 7.157,16.622 6.937,16.084 6.824,15.172 6.824,13.91 l 0,-5.735 C 6.824,6.505 6.735,5.23 6.562,4.383 6.383,3.518 6.084,2.801 5.673,2.254 5.076,1.492 4.301,0.92 3.367,0.55 2.442,0.185 1.31,0 0,0"
             style="fill:#231f20;fill-opacity:1;fill-rule:nonzero;stroke:none"
             id="path12771"
             inkscape:connector-curvature="0" /></g><g
           id="g12773"
           transform="translate(170.7777,105.8377)"><path
             d="m 0,0 -1.385,0 -0.074,0.104 -10.68,14.954 0,-10.821 c 0,-0.939 0.137,-1.679 0.408,-2.202 0.258,-0.495 0.623,-0.784 1.114,-0.882 l 0.201,-0.04 0,-0.922 -4.75,0 0,0.892 0.163,0.06 c 0.528,0.195 0.901,0.507 1.142,0.956 0.246,0.458 0.371,1.112 0.371,1.946 l 0,11.254 c 0,0.722 -0.108,1.254 -0.319,1.584 -0.196,0.303 -0.498,0.468 -0.921,0.502 l -0.231,0.018 0,0.948 4.102,0 0.074,-0.105 9.424,-13.227 0,7.921 c 0,1.603 -0.131,2.745 -0.391,3.392 -0.238,0.599 -0.636,0.944 -1.216,1.056 l -0.202,0.039 0,0.924 4.44,0 0,-0.857 L 1.149,17.42 C 0.727,17.162 0.438,16.791 0.269,16.285 0.09,15.754 0,14.689 0,13.12 L 0,0 Z"
             style="fill:#231f20;fill-opacity:1;fill-rule:nonzero;stroke:none"
             id="path12775"
             inkscape:connector-curvature="0" /></g><g
           id="g12777"
           transform="translate(178.9652,106.0291)"><path
             d="m 0,0 -5.301,0 0,0.94 0.236,0.015 c 0.32,0.019 0.531,0.146 0.662,0.398 0.152,0.294 0.229,0.805 0.229,1.519 l 0,12.379 c 0,0.73 -0.079,1.25 -0.235,1.548 -0.134,0.256 -0.341,0.381 -0.653,0.393 l -0.239,0.011 0,0.956 5.301,0 0,-0.956 -0.239,-0.011 C -0.551,17.18 -0.758,17.058 -0.891,16.81 -1.046,16.52 -1.125,15.996 -1.125,15.251 l 0,-12.379 c 0,-0.729 0.077,-1.244 0.229,-1.529 0.129,-0.244 0.337,-0.364 0.656,-0.376 L 0,0.957 0,0 Z"
             style="fill:#231f20;fill-opacity:1;fill-rule:nonzero;stroke:none"
             id="path12779"
             inkscape:connector-curvature="0" /></g><g
           id="g12781"
           transform="translate(188.4896,105.6346)"><path
             d="m 0,0 -1.859,0 -5.279,15.421 c -0.229,0.677 -0.466,1.196 -0.706,1.544 -0.22,0.322 -0.469,0.537 -0.737,0.638 l -0.162,0.061 0,0.89 5.228,0 0,-0.921 -0.2,-0.041 c -0.216,-0.045 -0.381,-0.126 -0.49,-0.243 -0.099,-0.108 -0.148,-0.254 -0.148,-0.446 0,-0.054 0.008,-0.151 0.042,-0.303 0.032,-0.142 0.078,-0.315 0.139,-0.523 L -0.146,4.056 3.3,15.109 c 0.044,0.152 0.076,0.313 0.097,0.479 0.025,0.171 0.036,0.337 0.036,0.501 0,0.377 -0.1,0.709 -0.306,1.016 -0.191,0.289 -0.405,0.447 -0.655,0.485 l -0.213,0.032 0,0.932 4.642,0 0,-0.882 L 6.75,17.607 C 6.237,17.388 5.802,17.029 5.455,16.542 5.096,16.039 4.761,15.301 4.46,14.35 L 0,0 Z"
             style="fill:#231f20;fill-opacity:1;fill-rule:nonzero;stroke:none"
             id="path12783"
             inkscape:connector-curvature="0" /></g><g
           id="g12785"
           transform="translate(209.265,106.0291)"><path
             d="m 0,0 -13.214,0 0,0.962 0.245,0.005 c 0.309,0.006 0.513,0.127 0.645,0.38 0.156,0.299 0.235,0.811 0.235,1.525 l 0,12.379 c 0,0.745 -0.079,1.269 -0.234,1.559 -0.132,0.248 -0.339,0.37 -0.652,0.382 l -0.239,0.011 0,0.956 12.813,0 0.325,-3.9 -0.949,-0.133 -0.07,0.189 c -0.343,0.934 -0.851,1.585 -1.51,1.937 -0.678,0.362 -2.061,0.545 -4.109,0.545 l -0.754,0 c -1.142,0 -1.388,-0.127 -1.437,-0.166 -0.042,-0.034 -0.182,-0.206 -0.182,-0.961 l 0,-4.778 2.301,0 c 1.299,0 2.216,0.119 2.727,0.355 0.487,0.223 0.817,0.607 1.011,1.175 l 0.058,0.17 0.837,0 0,-4.702 -0.861,0 -0.057,0.168 c -0.193,0.559 -0.481,0.948 -0.856,1.156 -0.269,0.15 -0.923,0.328 -2.511,0.328 l -2.649,0 0,-6.741 c 0,-0.942 0.194,-1.18 0.278,-1.239 0.096,-0.068 0.467,-0.224 1.855,-0.224 1.275,0 2.197,0.028 2.74,0.082 0.531,0.054 1.003,0.143 1.401,0.266 0.489,0.163 0.971,0.447 1.43,0.843 0.469,0.403 0.975,0.982 1.505,1.722 L 0.25,4.429 1.137,3.956 0,0 Z"
             style="fill:#231f20;fill-opacity:1;fill-rule:nonzero;stroke:none"
             id="path12787"
             inkscape:connector-curvature="0" /></g><g
           id="g12789"
           transform="translate(215.6703,115.3938)"><path
             d="m 0,0 c 0.163,-0.027 0.344,-0.046 0.538,-0.06 0.286,-0.019 0.635,-0.029 1.044,-0.029 1.939,0 3.388,0.327 4.304,0.972 0.899,0.635 1.337,1.59 1.337,2.92 0,1.299 -0.404,2.316 -1.198,3.022 C 5.222,7.538 4.056,7.899 2.563,7.899 1.559,7.899 0.867,7.77 0.506,7.514 0.17,7.278 0,6.807 0,6.114 L 0,0 Z m 10.859,-11.502 -0.347,0.146 c -1.746,0.738 -3.343,2 -4.744,3.749 -1.361,1.7 -2.514,3.838 -3.427,6.357 -0.103,-10e-4 -0.23,-0.004 -0.38,-0.009 -0.26,-0.008 -0.449,-0.012 -0.57,-0.012 -0.315,0 -0.779,0.013 -1.391,0.04 L 0,-6.493 C 0,-7.222 0.079,-7.738 0.234,-8.027 0.367,-8.274 0.572,-8.392 0.88,-8.398 l 0.245,-0.005 0,-0.962 -5.252,0 0,0.962 0.245,0.005 c 0.307,0.006 0.512,0.127 0.645,0.381 0.156,0.298 0.235,0.81 0.235,1.524 l 0,12.379 c 0,0.745 -0.079,1.269 -0.234,1.559 -0.133,0.248 -0.34,0.37 -0.652,0.383 l -0.239,0.01 0,0.945 4.236,0.202 C 0.702,9.01 1.188,9.028 1.568,9.04 1.95,9.052 2.234,9.058 2.42,9.058 c 2.409,0 4.36,-0.481 5.8,-1.43 1.472,-0.972 2.219,-2.283 2.219,-3.896 0,-1.192 -0.465,-2.231 -1.384,-3.086 -0.847,-0.788 -1.999,-1.339 -3.43,-1.642 0.828,-2.334 1.679,-4.311 2.528,-5.88 0.869,-1.609 1.75,-2.802 2.618,-3.545 l 0.088,-0.075 0,-1.006 z"
             style="fill:#231f20;fill-opacity:1;fill-rule:nonzero;stroke:none"
             id="path12791"
             inkscape:connector-curvature="0" /></g><g
           id="g12793"
           transform="translate(234.1078,105.6346)"><path
             d="m 0,0 c -1.189,0 -2.349,0.202 -3.443,0.601 -1.099,0.401 -2.106,0.988 -2.993,1.745 l -0.122,0.104 1.062,3.772 0.927,-0.164 0.036,-0.163 c 0.331,-1.5 0.926,-2.669 1.766,-3.478 0.842,-0.807 1.833,-1.199 3.031,-1.199 1.055,0 1.92,0.298 2.568,0.887 0.649,0.591 0.965,1.339 0.965,2.287 0,0.888 -0.258,1.614 -0.765,2.158 -0.526,0.564 -1.67,1.198 -3.399,1.884 l -0.67,0.263 c -1.702,0.658 -2.824,1.289 -3.43,1.928 -0.441,0.465 -0.78,0.98 -1.009,1.531 -0.226,0.551 -0.34,1.141 -0.34,1.754 0,1.433 0.537,2.643 1.596,3.598 1.053,0.948 2.388,1.429 3.968,1.429 0.861,0 1.76,-0.151 2.67,-0.449 0.906,-0.298 1.838,-0.743 2.768,-1.325 L 5.341,17.066 4.444,13.62 3.569,13.791 3.529,13.943 c -0.306,1.185 -0.824,2.117 -1.538,2.77 -0.713,0.652 -1.525,0.97 -2.481,0.97 -0.947,0 -1.709,-0.247 -2.268,-0.735 -0.553,-0.485 -0.822,-1.111 -0.822,-1.913 0,-0.722 0.227,-1.307 0.695,-1.788 0.483,-0.5 1.469,-1.057 2.933,-1.656 0.157,-0.064 0.391,-0.16 0.696,-0.288 C 2.859,10.453 4.19,9.742 4.809,9.131 5.278,8.679 5.635,8.149 5.865,7.56 6.096,6.972 6.213,6.304 6.213,5.577 6.213,3.97 5.621,2.623 4.454,1.572 3.293,0.529 1.794,0 0,0"
             style="fill:#231f20;fill-opacity:1;fill-rule:nonzero;stroke:none"
             id="path12795"
             inkscape:connector-curvature="0" /></g><g
           id="g12797"
           transform="translate(247.4183,106.0291)"><path
             d="m 0,0 -5.301,0 0,0.94 0.236,0.015 c 0.319,0.019 0.529,0.146 0.66,0.398 0.152,0.294 0.229,0.805 0.229,1.519 l 0,12.379 c 0,0.73 -0.079,1.25 -0.235,1.548 -0.134,0.256 -0.34,0.381 -0.651,0.393 l -0.239,0.011 0,0.956 5.301,0 0,-0.956 -0.239,-0.011 c -0.313,-0.012 -0.52,-0.134 -0.652,-0.381 -0.155,-0.291 -0.234,-0.815 -0.234,-1.56 l 0,-12.379 c 0,-0.729 0.077,-1.244 0.229,-1.529 C -0.769,1.099 -0.56,0.979 -0.24,0.967 L 0,0.957 0,0 Z"
             style="fill:#231f20;fill-opacity:1;fill-rule:nonzero;stroke:none"
             id="path12799"
             inkscape:connector-curvature="0" /></g><g
           id="g12801"
           transform="translate(258.9525,106.0291)"><path
             d="m 0,0 -5.35,0 0.025,0.957 0.233,0.01 c 0.312,0.012 0.516,0.135 0.644,0.385 0.153,0.295 0.23,0.806 0.23,1.52 l 0,13.457 c 0,0.337 -0.054,0.413 -0.057,0.416 -10e-4,0 -0.071,0.052 -0.351,0.052 -1.313,0 -2.324,-0.206 -3.003,-0.611 -0.681,-0.406 -1.32,-1.14 -1.901,-2.182 l -0.11,-0.195 -0.945,0.399 1.038,3.951 13.721,0 1.04,-3.951 -0.945,-0.399 -0.11,0.195 c -0.583,1.05 -1.221,1.786 -1.897,2.187 -0.675,0.402 -1.68,0.606 -2.986,0.606 -0.311,0 -0.378,-0.062 -0.379,-0.063 -0.001,-0.003 -0.064,-0.074 -0.064,-0.405 l 0,-13.457 c 0,-0.72 0.082,-1.233 0.244,-1.525 0.141,-0.253 0.35,-0.374 0.659,-0.38 L -0.024,0.962 0,0 Z"
             style="fill:#231f20;fill-opacity:1;fill-rule:nonzero;stroke:none"
             id="path12803"
             inkscape:connector-curvature="0" /></g><g
           id="g12805"
           transform="translate(268.4994,113.1258)"><path
             d="M 0,0 4.812,0 2.496,7.645 0,0 Z m 10.854,-7.097 -5.285,0 0,0.919 0.198,0.042 c 0.206,0.045 0.366,0.13 0.489,0.259 0.111,0.116 0.165,0.249 0.165,0.407 0,0.097 -0.033,0.322 -0.193,0.836 -0.039,0.123 -0.069,0.22 -0.093,0.289 l -0.918,2.984 -5.667,0 -0.712,-2.187 c -0.064,-0.213 -0.116,-0.432 -0.153,-0.647 -0.033,-0.199 -0.049,-0.383 -0.049,-0.544 0,-0.399 0.086,-0.72 0.257,-0.955 0.166,-0.229 0.409,-0.373 0.74,-0.441 l 0.2,-0.041 0,-0.921 -4.811,0 0,0.896 0.169,0.057 c 0.562,0.193 1.022,0.545 1.406,1.079 0.395,0.548 0.807,1.493 1.226,2.808 l 4.475,13.702 1.908,0 0.056,-0.173 4.884,-15.048 c 0.272,-0.846 0.538,-1.465 0.792,-1.842 0.219,-0.328 0.442,-0.5 0.661,-0.512 l 0.23,-0.013 0.025,-0.954 z"
             style="fill:#231f20;fill-opacity:1;fill-rule:nonzero;stroke:none"
             id="path12807"
             inkscape:connector-curvature="0" /></g><g
           id="g12809"
           transform="translate(274.4671,125.4002)"><path
             d="m 0,0 -1.464,0 -4.012,2.492 c -0.281,0.181 -0.484,0.362 -0.627,0.555 -0.154,0.212 -0.233,0.435 -0.233,0.663 0,0.308 0.108,0.569 0.321,0.777 0.351,0.345 0.906,0.425 1.418,0.135 0.189,-0.108 0.426,-0.31 0.725,-0.618 L 0,0 Z"
             style="fill:#231f20;fill-opacity:1;fill-rule:nonzero;stroke:none"
             id="path12811"
             inkscape:connector-curvature="0" /></g><g
           id="g12813"
           transform="translate(145.9867,101.6258)"><path
             d="m 0,0 c -1.61,0 -2.258,-0.199 -2.517,-0.366 -0.341,-0.222 -0.514,-0.699 -0.514,-1.419 l 0,-12.666 c 0,-0.54 0.109,-0.902 0.326,-1.074 0.131,-0.105 0.525,-0.281 1.699,-0.281 2.579,0 4.412,0.577 5.448,1.714 1.041,1.145 1.57,3.158 1.57,5.986 0,2.74 -0.505,4.805 -1.501,6.136 C 3.532,-0.663 2.015,0 0,0 m -0.383,-17.036 -6.775,0 0,0.962 0.245,0.005 c 0.309,0.006 0.513,0.127 0.644,0.381 0.157,0.297 0.236,0.81 0.236,1.524 l 0,12.379 c 0,0.744 -0.079,1.269 -0.235,1.558 -0.131,0.249 -0.338,0.371 -0.651,0.383 l -0.239,0.011 0,0.949 4.17,0.127 c 0.297,0.008 0.591,0.014 0.884,0.018 0.291,0.004 0.658,0.006 1.098,0.006 1.284,0 2.361,-0.08 3.2,-0.238 C 3.037,0.871 3.815,0.611 4.508,0.258 5.959,-0.48 7.122,-1.62 7.965,-3.129 c 0.838,-1.502 1.264,-3.209 1.264,-5.073 0,-2.75 -0.862,-4.935 -2.56,-6.493 -1.69,-1.553 -4.064,-2.341 -7.052,-2.341"
             style="fill:#231f20;fill-opacity:1;fill-rule:nonzero;stroke:none"
             id="path12815"
             inkscape:connector-curvature="0" /></g><g
           id="g12817"
           transform="translate(170.2865,84.5896)"><path
             d="m 0,0 -13.214,0 0,0.962 0.245,0.005 c 0.309,0.006 0.513,0.127 0.645,0.381 0.156,0.298 0.235,0.81 0.235,1.524 l 0,12.379 c 0,0.745 -0.079,1.269 -0.234,1.559 -0.132,0.248 -0.339,0.37 -0.652,0.382 l -0.239,0.011 0,0.956 12.813,0 0.325,-3.9 -0.949,-0.133 -0.07,0.189 c -0.343,0.934 -0.851,1.585 -1.51,1.937 -0.678,0.362 -2.061,0.545 -4.109,0.545 l -0.754,0 c -1.142,0 -1.388,-0.127 -1.437,-0.166 -0.042,-0.034 -0.182,-0.206 -0.182,-0.961 l 0,-4.778 2.301,0 c 1.299,0 2.216,0.119 2.727,0.355 0.487,0.223 0.817,0.607 1.011,1.175 l 0.058,0.17 0.837,0 0,-4.702 -0.861,0 -0.057,0.168 c -0.193,0.559 -0.481,0.948 -0.856,1.156 -0.269,0.15 -0.923,0.328 -2.511,0.328 l -2.649,0 0,-6.741 c 0,-0.942 0.194,-1.18 0.278,-1.239 0.096,-0.068 0.467,-0.224 1.855,-0.224 1.275,0 2.197,0.027 2.74,0.083 0.531,0.054 1.003,0.142 1.401,0.266 0.489,0.162 0.971,0.446 1.43,0.842 0.469,0.403 0.975,0.982 1.505,1.722 L 0.25,4.43 1.137,3.955 0,0 Z"
             style="fill:#231f20;fill-opacity:1;fill-rule:nonzero;stroke:none"
             id="path12819"
             inkscape:connector-curvature="0" /></g><g
           id="g12821"
           transform="translate(185.0423,84.5896)"><path
             d="m 0,0 -12.358,0 0,0.94 0.235,0.015 c 0.319,0.019 0.529,0.146 0.66,0.399 0.152,0.293 0.23,0.804 0.23,1.518 l 0,12.379 c 0,0.73 -0.08,1.25 -0.236,1.548 -0.134,0.256 -0.34,0.381 -0.65,0.393 l -0.239,0.011 0,0.956 5.3,0 0,-0.956 -0.239,-0.011 C -7.609,17.18 -7.816,17.058 -7.948,16.811 -8.104,16.52 -8.183,15.996 -8.183,15.251 l 0,-12.45 c 0,-0.925 0.182,-1.16 0.259,-1.219 0.11,-0.082 0.449,-0.22 1.503,-0.22 1.255,0 2.188,0.057 2.772,0.169 0.571,0.11 1.091,0.295 1.546,0.553 0.29,0.163 0.606,0.426 0.942,0.78 0.342,0.363 0.723,0.837 1.133,1.41 L 0.079,4.425 1.012,4.113 0,0 Z"
             style="fill:#231f20;fill-opacity:1;fill-rule:nonzero;stroke:none"
             id="path12823"
             inkscape:connector-curvature="0" /></g><g
           id="g12825"
           transform="translate(199.5872,84.5896)"><path
             d="m 0,0 -12.358,0 0,0.94 0.235,0.015 c 0.319,0.019 0.529,0.146 0.66,0.399 0.152,0.293 0.23,0.804 0.23,1.518 l 0,12.379 c 0,0.73 -0.08,1.25 -0.236,1.548 -0.134,0.256 -0.34,0.381 -0.65,0.393 l -0.239,0.011 0,0.956 5.3,0 0,-0.956 -0.239,-0.011 C -7.609,17.18 -7.816,17.058 -7.948,16.811 -8.104,16.52 -8.183,15.996 -8.183,15.251 l 0,-12.45 c 0,-0.925 0.182,-1.16 0.259,-1.219 0.11,-0.082 0.449,-0.22 1.503,-0.22 1.255,0 2.188,0.057 2.772,0.169 0.571,0.11 1.091,0.295 1.546,0.553 0.29,0.163 0.606,0.426 0.942,0.78 0.342,0.363 0.723,0.837 1.133,1.41 L 0.079,4.425 1.012,4.113 0,0 Z"
             style="fill:#231f20;fill-opacity:1;fill-rule:nonzero;stroke:none"
             id="path12827"
             inkscape:connector-curvature="0" /></g><g
           id="g12829"
           transform="translate(205.8412,91.6863)"><path
             d="M 0,0 4.812,0 2.496,7.645 0,0 Z m 10.854,-7.097 -5.285,0 0,0.918 0.198,0.043 c 0.206,0.045 0.366,0.13 0.489,0.259 0.111,0.116 0.165,0.249 0.165,0.407 0,0.097 -0.033,0.322 -0.193,0.836 -0.039,0.123 -0.069,0.221 -0.093,0.289 l -0.918,2.984 -5.667,0 -0.712,-2.187 c -0.064,-0.213 -0.116,-0.432 -0.153,-0.647 -0.033,-0.2 -0.049,-0.383 -0.049,-0.544 0,-0.4 0.086,-0.72 0.257,-0.954 0.166,-0.23 0.409,-0.374 0.74,-0.442 l 0.2,-0.041 0,-0.921 -4.811,0 0,0.896 0.169,0.057 c 0.562,0.193 1.022,0.545 1.406,1.079 0.395,0.548 0.807,1.494 1.226,2.808 l 4.475,13.702 1.908,0 0.056,-0.173 4.884,-15.048 c 0.272,-0.845 0.538,-1.464 0.792,-1.841 0.219,-0.328 0.442,-0.501 0.661,-0.513 l 0.23,-0.013 0.025,-0.954 z"
             style="fill:#231f20;fill-opacity:1;fill-rule:nonzero;stroke:none"
             id="path12831"
             inkscape:connector-curvature="0" /></g><g
           id="g12833"
           transform="translate(146.8968,62.7556)"><path
             d="m 0,0 c -2.442,0 -4.428,0.827 -5.902,2.458 -1.469,1.623 -2.213,3.808 -2.213,6.495 0,1.684 0.281,3.235 0.837,4.613 0.557,1.382 1.391,2.583 2.477,3.57 0.618,0.57 1.389,1.018 2.287,1.332 1.764,0.612 3.764,0.65 5.822,-0.06 1.007,-0.347 2.067,-0.884 3.15,-1.596 L 6.615,16.709 5.573,13.355 4.646,13.494 4.598,13.642 c -0.431,1.329 -1.063,2.351 -1.88,3.04 -0.807,0.679 -1.794,1.024 -2.935,1.024 -1.49,0 -2.663,-0.641 -3.584,-1.958 -0.927,-1.327 -1.396,-3.126 -1.396,-5.346 0,-2.505 0.601,-4.575 1.788,-6.153 C -2.224,2.669 -0.756,1.9 1.078,1.9 2.128,1.9 3.104,2.163 3.979,2.68 4.863,3.203 5.7,4.009 6.465,5.076 L 6.609,5.277 7.447,4.688 7.324,4.488 C 6.39,2.961 5.318,1.819 4.141,1.097 2.959,0.369 1.565,0 0,0"
             style="fill:#231f20;fill-opacity:1;fill-rule:nonzero;stroke:none"
             id="path12835"
             inkscape:connector-curvature="0" /></g><g
           id="g12837"
           transform="translate(158.2435,70.2469)"><path
             d="M 0,0 4.814,0 2.496,7.646 0,0 Z m 10.855,-7.097 -5.284,0 0,0.918 0.198,0.043 c 0.206,0.045 0.366,0.13 0.489,0.259 0.109,0.115 0.163,0.249 0.163,0.407 0,0.096 -0.033,0.32 -0.192,0.837 l -1.012,3.272 -5.667,0 -0.709,-2.187 c -0.07,-0.227 -0.121,-0.445 -0.153,-0.644 -0.036,-0.213 -0.052,-0.392 -0.052,-0.547 0,-0.4 0.087,-0.721 0.258,-0.953 0.168,-0.231 0.409,-0.375 0.739,-0.443 l 0.2,-0.041 0,-0.921 -4.809,0 0,0.896 0.169,0.057 c 0.555,0.191 1.028,0.554 1.404,1.078 0.392,0.544 0.805,1.488 1.228,2.809 l 4.475,13.702 1.906,0 0.056,-0.173 4.885,-15.048 c 0.271,-0.845 0.537,-1.464 0.791,-1.841 0.219,-0.328 0.442,-0.501 0.663,-0.513 l 0.23,-0.013 0.024,-0.954 z"
             style="fill:#231f20;fill-opacity:1;fill-rule:nonzero;stroke:none"
             id="path12839"
             inkscape:connector-curvature="0" /></g><g
           id="g12841"
           transform="translate(182.0755,63.1502)"><path
             d="m 0,0 -12.358,0 0,0.94 0.235,0.015 c 0.319,0.019 0.529,0.146 0.66,0.399 0.152,0.293 0.23,0.804 0.23,1.518 l 0,12.379 c 0,0.729 -0.08,1.251 -0.236,1.548 -0.134,0.256 -0.34,0.381 -0.65,0.393 l -0.239,0.01 0,0.957 5.3,0 0,-0.957 -0.239,-0.01 C -7.609,17.18 -7.816,17.059 -7.948,16.811 -8.104,16.52 -8.183,15.995 -8.183,15.251 l 0,-12.45 c 0,-0.925 0.182,-1.16 0.259,-1.219 0.11,-0.082 0.449,-0.22 1.503,-0.22 1.255,0 2.188,0.057 2.772,0.169 0.571,0.11 1.091,0.295 1.546,0.553 0.29,0.163 0.606,0.426 0.942,0.78 0.342,0.363 0.723,0.837 1.133,1.41 L 0.079,4.425 1.012,4.113 0,0 Z"
             style="fill:#231f20;fill-opacity:1;fill-rule:nonzero;stroke:none"
             id="path12843"
             inkscape:connector-curvature="0" /></g><g
           id="g12845"
           transform="translate(187.8626,70.2469)"><path
             d="M 0,0 4.814,0 2.496,7.646 0,0 Z m 10.855,-7.097 -5.284,0 0,0.918 0.198,0.043 c 0.206,0.045 0.366,0.13 0.489,0.259 0.109,0.115 0.163,0.249 0.163,0.407 0,0.096 -0.033,0.32 -0.192,0.837 l -1.012,3.272 -5.667,0 -0.709,-2.187 c -0.07,-0.227 -0.121,-0.445 -0.153,-0.644 -0.036,-0.213 -0.052,-0.392 -0.052,-0.547 0,-0.4 0.087,-0.721 0.258,-0.953 0.168,-0.231 0.409,-0.375 0.739,-0.443 l 0.2,-0.041 0,-0.921 -4.809,0 0,0.896 0.169,0.057 c 0.555,0.191 1.028,0.554 1.404,1.078 0.392,0.544 0.805,1.488 1.228,2.809 l 4.475,13.702 1.906,0 0.056,-0.173 4.885,-15.048 c 0.271,-0.845 0.537,-1.464 0.791,-1.841 0.219,-0.328 0.442,-0.501 0.663,-0.513 l 0.23,-0.013 0.024,-0.954 z"
             style="fill:#231f20;fill-opacity:1;fill-rule:nonzero;stroke:none"
             id="path12847"
             inkscape:connector-curvature="0" /></g><g
           id="g12849"
           transform="translate(203.3441,73.4558)"><path
             d="M 0,0 1.318,0 C 3.278,0 4.684,0.265 5.493,0.786 6.278,1.293 6.66,2.117 6.66,3.306 6.66,4.425 6.308,5.259 5.583,5.854 4.854,6.451 3.789,6.755 2.42,6.755 1.13,6.755 0.615,6.581 0.41,6.436 0.142,6.246 0,5.739 0,4.97 L 0,0 Z m 0,-1.23 0,-6.227 c 0,-0.974 0.205,-1.266 0.327,-1.354 0.138,-0.099 0.574,-0.264 1.974,-0.264 1.705,0 2.969,0.322 3.757,0.956 0.773,0.623 1.165,1.614 1.165,2.948 0,1.329 -0.38,2.326 -1.129,2.964 C 5.335,-1.559 4.139,-1.23 2.539,-1.23 L 0,-1.23 Z m 2.646,-9.076 -6.773,0 0,0.962 0.245,0.005 c 0.307,0.006 0.512,0.127 0.645,0.382 0.156,0.297 0.235,0.81 0.235,1.523 l 0,12.379 c 0,0.744 -0.079,1.269 -0.234,1.559 -0.133,0.248 -0.34,0.37 -0.652,0.383 l -0.239,0.009 0,0.952 4.098,0.101 c 0.44,0.008 0.902,0.018 1.387,0.03 0.494,0.012 0.767,0.018 0.822,0.018 2.161,0 3.95,-0.432 5.315,-1.283 C 8.9,5.84 9.613,4.701 9.613,3.329 9.613,2.316 9.202,1.441 8.392,0.729 7.78,0.193 6.948,-0.242 5.911,-0.57 c 1.184,-0.344 2.16,-0.874 2.911,-1.581 0.962,-0.908 1.449,-2.008 1.449,-3.271 0,-1.585 -0.675,-2.814 -2.007,-3.654 -1.297,-0.816 -3.187,-1.23 -5.618,-1.23"
             style="fill:#231f20;fill-opacity:1;fill-rule:nonzero;stroke:none"
             id="path12851"
             inkscape:connector-curvature="0" /></g><g
           id="g12853"
           transform="translate(219.016,72.5144)"><path
             d="m 0,0 c 0.163,-0.026 0.344,-0.046 0.538,-0.06 0.286,-0.018 0.635,-0.029 1.044,-0.029 1.939,0 3.388,0.327 4.304,0.973 0.899,0.635 1.337,1.59 1.337,2.92 0,1.299 -0.404,2.315 -1.198,3.022 C 5.222,7.538 4.056,7.899 2.563,7.899 1.559,7.899 0.867,7.77 0.506,7.515 0.17,7.278 0,6.808 0,6.114 L 0,0 Z m 10.859,-11.502 -0.347,0.147 c -1.746,0.738 -3.343,2 -4.744,3.749 -1.361,1.7 -2.514,3.837 -3.427,6.357 -0.103,-0.002 -0.23,-0.005 -0.38,-0.01 -0.26,-0.008 -0.449,-0.012 -0.57,-0.012 -0.315,0 -0.779,0.013 -1.391,0.041 l 0,-5.262 c 0,-0.73 0.079,-1.245 0.234,-1.534 0.133,-0.247 0.338,-0.366 0.646,-0.371 l 0.245,-0.005 0,-0.962 -5.252,0 0,0.962 0.245,0.005 c 0.307,0.005 0.512,0.126 0.645,0.381 0.156,0.297 0.235,0.81 0.235,1.524 l 0,12.379 c 0,0.744 -0.079,1.268 -0.234,1.558 -0.133,0.248 -0.34,0.37 -0.652,0.383 l -0.239,0.01 0,0.945 4.236,0.203 C 0.702,9.011 1.188,9.028 1.568,9.04 1.95,9.053 2.234,9.059 2.42,9.059 c 2.409,0 4.36,-0.482 5.8,-1.43 1.472,-0.973 2.219,-2.283 2.219,-3.897 0,-1.192 -0.465,-2.23 -1.384,-3.086 -0.847,-0.788 -1.999,-1.339 -3.43,-1.641 0.828,-2.334 1.679,-4.312 2.528,-5.881 0.869,-1.609 1.75,-2.802 2.618,-3.545 l 0.088,-0.074 0,-1.007 z"
             style="fill:#231f20;fill-opacity:1;fill-rule:nonzero;stroke:none"
             id="path12855"
             inkscape:connector-curvature="0" /></g><g
           id="g12857"
           transform="translate(235.932,63.1502)"><path
             d="m 0,0 -5.301,0 0,0.94 0.236,0.015 c 0.32,0.019 0.531,0.146 0.662,0.399 0.152,0.293 0.229,0.804 0.229,1.518 l 0,12.379 c 0,0.729 -0.079,1.251 -0.235,1.548 -0.134,0.256 -0.341,0.381 -0.653,0.393 l -0.239,0.01 0,0.957 5.301,0 0,-0.957 -0.239,-0.01 C -0.551,17.18 -0.758,17.058 -0.891,16.81 -1.046,16.52 -1.125,15.995 -1.125,15.251 l 0,-12.379 c 0,-0.729 0.077,-1.244 0.229,-1.529 C -0.767,1.1 -0.559,0.979 -0.24,0.967 L 0,0.957 0,0 Z"
             style="fill:#231f20;fill-opacity:1;fill-rule:nonzero;stroke:none"
             id="path12859"
             inkscape:connector-curvature="0" /></g><g
           id="g12861"
           transform="translate(241.8764,70.2469)"><path
             d="M 0,0 4.814,0 2.496,7.646 0,0 Z m 10.855,-7.097 -5.284,0 0,0.918 0.198,0.043 c 0.206,0.045 0.366,0.13 0.489,0.259 0.109,0.115 0.163,0.249 0.163,0.407 0,0.096 -0.033,0.32 -0.192,0.837 l -1.012,3.272 -5.667,0 -0.709,-2.187 c -0.07,-0.227 -0.121,-0.445 -0.153,-0.644 -0.036,-0.213 -0.052,-0.392 -0.052,-0.547 0,-0.4 0.087,-0.721 0.258,-0.953 0.168,-0.231 0.409,-0.375 0.739,-0.443 l 0.2,-0.041 0,-0.921 -4.809,0 0,0.896 0.169,0.057 c 0.555,0.191 1.028,0.554 1.404,1.078 0.392,0.544 0.805,1.488 1.228,2.809 l 4.475,13.702 1.906,0 0.056,-0.173 4.885,-15.048 c 0.271,-0.845 0.537,-1.464 0.791,-1.841 0.219,-0.328 0.442,-0.501 0.663,-0.513 l 0.23,-0.013 0.024,-0.954 z"
             style="fill:#231f20;fill-opacity:1;fill-rule:nonzero;stroke:none"
             id="path12863"
             inkscape:connector-curvature="0" /></g></g></g></g></svg>