<?xml version="1.0" encoding="UTF-8" standalone="no"?>
<!-- Created with Inkscape (http://www.inkscape.org/) -->

<svg
   xmlns:dc="http://purl.org/dc/elements/1.1/"
   xmlns:cc="http://creativecommons.org/ns#"
   xmlns:rdf="http://www.w3.org/1999/02/22-rdf-syntax-ns#"
   xmlns:svg="http://www.w3.org/2000/svg"
   xmlns="http://www.w3.org/2000/svg"
   xmlns:sodipodi="http://sodipodi.sourceforge.net/DTD/sodipodi-0.dtd"
   xmlns:inkscape="http://www.inkscape.org/namespaces/inkscape"
   id="svg5699"
   version="1.1"
   inkscape:version="0.91 r13725"
   xml:space="preserve"
   width="526.66125"
   height="53.473751"
   viewBox="0 0 526.66125 53.473744"
   sodipodi:docname="logo1.svg"><metadata
     id="metadata5705"><rdf:RDF><cc:Work
         rdf:about=""><dc:format>image/svg+xml</dc:format><dc:type
           rdf:resource="http://purl.org/dc/dcmitype/StillImage" /><dc:title></dc:title></cc:Work></rdf:RDF></metadata><defs
     id="defs5703"><clipPath
       clipPathUnits="userSpaceOnUse"
       id="clipPath5731"><path
         d="m 0,137.979 566.929,0 L 566.929,0 0,0 0,137.979 Z"
         id="path5733"
         inkscape:connector-curvature="0" /></clipPath></defs><sodipodi:namedview
     pagecolor="#ffffff"
     bordercolor="#666666"
     borderopacity="1"
     objecttolerance="10"
     gridtolerance="10"
     guidetolerance="10"
     inkscape:pageopacity="0"
     inkscape:pageshadow="2"
     inkscape:window-width="1920"
     inkscape:window-height="1004"
     id="namedview5701"
     showgrid="false"
     inkscape:zoom="0.66463349"
     inkscape:cx="354.33063"
     inkscape:cy="86.236877"
     inkscape:window-x="0"
     inkscape:window-y="24"
     inkscape:window-maximized="1"
     inkscape:current-layer="g5707" /><g
     id="g5707"
     inkscape:groupmode="layer"
     inkscape:label="marchi Unical"
     transform="matrix(1.25,0,0,-1.25,0,53.473658)"><path
       d="m 4.4190738,10.304809 32.1180002,0 0,-5.3530005 -32.1180002,0 0,5.3530005 z"
       style="fill:#b71e24;fill-opacity:1;fill-rule:evenodd;stroke:none"
       id="path5709"
       inkscape:connector-curvature="0" /><path
       d="m 4.4190738,16.990809 32.1180002,0 0,-5.356 -32.1180002,0 0,5.356 z"
       style="fill:#b71e24;fill-opacity:1;fill-rule:evenodd;stroke:none"
       id="path5711"
       inkscape:connector-curvature="0" /><path
       d="m 4.4190738,23.681809 32.1180002,0 0,-5.353 -32.1180002,0 0,5.353 z"
       style="fill:#b71e24;fill-opacity:1;fill-rule:evenodd;stroke:none"
       id="path5713"
       inkscape:connector-curvature="0" /><path
       d="m 4.4190738,30.375809 32.1180002,0 0,-5.352 -32.1180002,0 0,5.352 z"
       style="fill:#b71e24;fill-opacity:1;fill-rule:evenodd;stroke:none"
       id="path5715"
       inkscape:connector-curvature="0" /><path
       d="m 4.4190738,37.064809 32.1180002,0 0,-5.352 -32.1180002,0 0,5.352 z"
       style="fill:#b71e24;fill-opacity:1;fill-rule:evenodd;stroke:none"
       id="path5717"
       inkscape:connector-curvature="0" /><g
       id="g5719"
       transform="translate(37.875774,4.9514085)"><path
         d="M 0,0 12.047,12.04 0,12.04 0,0 Z"
         style="fill:#231f20;fill-opacity:1;fill-rule:evenodd;stroke:none"
         id="path5721"
         inkscape:connector-curvature="0" /></g><path
       d="m 37.876074,23.681809 16.02,0 0,-5.353 -16.02,0 0,5.353 z"
       style="fill:#918f90;fill-opacity:1;fill-rule:evenodd;stroke:none"
       id="path5723"
       inkscape:connector-curvature="0" /><path
       d="m 37.876074,30.375809 16.02,0 0,-5.352 -16.02,0 0,5.352 z"
       style="fill:#918f90;fill-opacity:1;fill-rule:evenodd;stroke:none"
       id="path5725"
       inkscape:connector-curvature="0" /><g
       id="g5727"
       transform="translate(-73.423926,-54.165191)"><g
         id="g5729"
         clip-path="url(#clipPath5731)"><g
           id="g5735"
           transform="translate(149.5386,65.8765)"><path
             d="M 0,0 C -1.215,0 -2.308,0.189 -3.247,0.562 -4.196,0.939 -4.97,1.49 -5.545,2.199 -5.951,2.715 -6.245,3.341 -6.42,4.064 -6.592,4.771 -6.679,5.889 -6.679,7.385 l 0,8.261 c 0,0.73 -0.079,1.25 -0.235,1.548 -0.134,0.256 -0.341,0.381 -0.651,0.393 l -0.24,0.01 0,0.957 5.301,0 0,-0.957 -0.24,-0.01 c -0.311,-0.012 -0.518,-0.134 -0.651,-0.382 -0.155,-0.29 -0.234,-0.814 -0.234,-1.559 l 0,-8.751 c 0,-1.982 0.331,-3.387 0.984,-4.175 0.642,-0.774 1.769,-1.166 3.351,-1.166 0.748,0 1.397,0.079 1.93,0.235 0.525,0.153 0.996,0.395 1.399,0.715 0.514,0.42 0.883,1.004 1.094,1.736 0.22,0.761 0.332,2.093 0.332,3.959 l 0,5.831 c 0,1.172 -0.132,2.06 -0.391,2.639 -0.241,0.538 -0.604,0.839 -1.111,0.921 l -0.21,0.034 0,0.93 4.642,0 0,-0.902 -0.178,-0.054 C 7.71,17.444 7.364,17.125 7.157,16.623 6.936,16.085 6.823,15.173 6.823,13.91 l 0,-5.735 C 6.823,6.506 6.735,5.23 6.56,4.384 6.382,3.517 6.083,2.801 5.671,2.254 5.076,1.492 4.301,0.92 3.366,0.55 2.443,0.185 1.311,0 0,0"
             style="fill:#231f20;fill-opacity:1;fill-rule:nonzero;stroke:none"
             id="path5737"
             inkscape:connector-curvature="0" /></g><g
           id="g5739"
           transform="translate(173.564,66.0802)"><path
             d="m 0,0 -1.384,0 -0.075,0.104 -10.681,14.953 0,-10.82 c 0,-0.937 0.138,-1.678 0.409,-2.202 0.257,-0.496 0.622,-0.785 1.113,-0.882 l 0.202,-0.039 0,-0.923 -4.75,0 0,0.891 0.163,0.061 c 0.529,0.195 0.902,0.508 1.142,0.955 0.246,0.46 0.371,1.115 0.371,1.947 l 0,11.254 c 0,0.722 -0.108,1.254 -0.319,1.583 -0.197,0.304 -0.499,0.468 -0.923,0.502 l -0.23,0.018 0,0.948 4.102,0 9.498,-13.331 0,7.921 c 0,1.604 -0.131,2.746 -0.389,3.392 -0.24,0.599 -0.637,0.944 -1.216,1.056 l -0.203,0.039 0,0.923 4.439,0 0,-0.857 -0.12,-0.073 C 0.726,17.162 0.438,16.791 0.268,16.285 0.09,15.754 0,14.689 0,13.12 L 0,0 Z"
             style="fill:#231f20;fill-opacity:1;fill-rule:nonzero;stroke:none"
             id="path5741"
             inkscape:connector-curvature="0" /></g><g
           id="g5743"
           transform="translate(181.7515,66.2716)"><path
             d="m 0,0 -5.301,0 0,0.941 0.236,0.014 c 0.319,0.019 0.529,0.145 0.66,0.398 0.153,0.293 0.23,0.805 0.23,1.519 l 0,12.379 c 0,0.73 -0.079,1.25 -0.235,1.548 -0.134,0.256 -0.341,0.381 -0.651,0.393 l -0.24,0.01 0,0.957 5.301,0 0,-0.957 -0.24,-0.01 C -0.551,17.18 -0.758,17.058 -0.891,16.81 -1.046,16.52 -1.125,15.996 -1.125,15.251 l 0,-12.379 c 0,-0.729 0.077,-1.244 0.229,-1.529 0.129,-0.244 0.337,-0.364 0.656,-0.376 L 0,0.957 0,0 Z"
             style="fill:#231f20;fill-opacity:1;fill-rule:nonzero;stroke:none"
             id="path5745"
             inkscape:connector-curvature="0" /></g><g
           id="g5747"
           transform="translate(191.2745,65.8765)"><path
             d="m 0,0 -1.859,0 -5.277,15.421 c -0.231,0.677 -0.468,1.197 -0.707,1.545 -0.221,0.322 -0.469,0.536 -0.738,0.637 l -0.162,0.061 0,0.89 5.23,0 0,-0.921 -0.2,-0.041 c -0.218,-0.045 -0.383,-0.126 -0.49,-0.242 -0.1,-0.108 -0.148,-0.254 -0.148,-0.447 0,-0.054 0.007,-0.151 0.042,-0.304 0.03,-0.141 0.077,-0.314 0.139,-0.522 L -0.145,4.056 3.301,15.11 c 0.043,0.15 0.076,0.312 0.098,0.478 0.023,0.17 0.034,0.337 0.034,0.501 0,0.377 -0.1,0.709 -0.305,1.017 -0.192,0.288 -0.406,0.446 -0.655,0.484 l -0.213,0.032 0,0.932 4.643,0 0,-0.882 -0.152,-0.065 C 6.238,17.388 5.802,17.029 5.455,16.542 5.098,16.041 4.763,15.303 4.46,14.349 L 0,0 Z"
             style="fill:#231f20;fill-opacity:1;fill-rule:nonzero;stroke:none"
             id="path5749"
             inkscape:connector-curvature="0" /></g><g
           id="g5751"
           transform="translate(212.0503,66.2716)"><path
             d="m 0,0 -13.213,0 0,0.962 0.245,0.005 c 0.308,0.006 0.512,0.127 0.645,0.381 0.156,0.298 0.235,0.81 0.235,1.524 l 0,12.379 c 0,0.745 -0.079,1.269 -0.234,1.558 -0.133,0.249 -0.34,0.371 -0.651,0.383 l -0.24,0.01 0,0.957 12.811,0 0.326,-3.901 -0.948,-0.133 -0.07,0.189 c -0.343,0.935 -0.852,1.586 -1.511,1.937 -0.678,0.362 -2.061,0.546 -4.109,0.546 l -0.754,0 c -1.17,0 -1.402,-0.138 -1.436,-0.166 -0.03,-0.025 -0.182,-0.186 -0.182,-0.961 l 0,-4.778 2.301,0 c 1.297,0 2.215,0.119 2.726,0.354 0.487,0.224 0.817,0.608 1.012,1.177 l 0.058,0.169 0.836,0 0,-4.702 -0.86,0 -0.058,0.168 c -0.194,0.56 -0.481,0.949 -0.855,1.156 -0.269,0.15 -0.924,0.328 -2.512,0.328 l -2.648,0 0,-6.742 c 0,-0.942 0.194,-1.179 0.277,-1.238 0.12,-0.084 0.518,-0.224 1.856,-0.224 1.28,0 2.202,0.028 2.74,0.082 0.532,0.054 1.003,0.143 1.4,0.266 0.489,0.163 0.972,0.447 1.431,0.843 0.469,0.404 0.976,0.983 1.505,1.721 L 0.25,4.429 1.137,3.955 0,0 Z"
             style="fill:#231f20;fill-opacity:1;fill-rule:nonzero;stroke:none"
             id="path5753"
             inkscape:connector-curvature="0" /></g><g
           id="g5755"
           transform="translate(218.4556,75.6363)"><path
             d="m 0,0 c 0.164,-0.026 0.345,-0.046 0.539,-0.06 0.287,-0.02 0.635,-0.029 1.043,-0.029 1.941,0 3.389,0.327 4.303,0.972 0.9,0.635 1.338,1.59 1.338,2.92 0,1.3 -0.403,2.316 -1.198,3.022 C 5.222,7.538 4.058,7.899 2.563,7.899 1.559,7.899 0.867,7.77 0.506,7.514 0.17,7.277 0,6.806 0,6.114 L 0,0 Z m 10.859,-11.503 -0.347,0.147 c -1.746,0.738 -3.342,2 -4.743,3.749 C 4.407,-5.907 3.254,-3.769 2.34,-1.25 2.238,-1.251 2.111,-1.255 1.961,-1.26 1.702,-1.268 1.511,-1.271 1.391,-1.271 1.076,-1.271 0.613,-1.259 0,-1.232 l 0,-5.261 c 0,-0.729 0.079,-1.245 0.234,-1.534 0.133,-0.247 0.338,-0.365 0.647,-0.371 l 0.245,-0.005 0,-0.962 -5.253,0 0,0.962 0.245,0.005 c 0.308,0.006 0.512,0.127 0.645,0.381 0.156,0.298 0.235,0.81 0.235,1.524 l 0,12.379 c 0,0.745 -0.079,1.269 -0.234,1.558 -0.133,0.249 -0.34,0.371 -0.651,0.383 l -0.24,0.01 0,0.945 4.236,0.203 C 0.703,9.01 1.189,9.028 1.568,9.04 1.951,9.052 2.234,9.058 2.42,9.058 4.829,9.058 6.78,8.577 8.221,7.628 9.693,6.656 10.44,5.345 10.44,3.731 10.44,2.539 9.974,1.501 9.055,0.645 8.209,-0.143 7.056,-0.694 5.625,-0.996 c 0.832,-2.34 1.682,-4.317 2.528,-5.88 0.871,-1.611 1.752,-2.803 2.619,-3.545 l 0.087,-0.075 0,-1.007 z"
             style="fill:#231f20;fill-opacity:1;fill-rule:nonzero;stroke:none"
             id="path5757"
             inkscape:connector-curvature="0" /></g><g
           id="g5759"
           transform="translate(236.8941,65.8765)"><path
             d="m 0,0 c -1.188,0 -2.347,0.202 -3.444,0.602 -1.098,0.399 -2.104,0.987 -2.992,1.745 l -0.122,0.103 1.062,3.772 0.927,-0.164 0.036,-0.163 c 0.33,-1.5 0.925,-2.67 1.766,-3.477 0.83,-0.796 1.849,-1.2 3.03,-1.2 1.055,0 1.919,0.299 2.568,0.887 0.649,0.59 0.965,1.338 0.965,2.287 0,0.9 -0.25,1.607 -0.765,2.158 -0.527,0.565 -1.67,1.199 -3.399,1.884 l -0.67,0.263 c -1.702,0.658 -2.824,1.289 -3.43,1.928 -0.441,0.465 -0.78,0.981 -1.007,1.532 -0.227,0.55 -0.342,1.14 -0.342,1.753 0,1.432 0.537,2.643 1.597,3.598 1.053,0.948 2.387,1.429 3.968,1.429 0.861,0 1.759,-0.151 2.669,-0.449 0.906,-0.297 1.837,-0.742 2.768,-1.325 L 5.34,17.066 4.445,13.62 3.568,13.791 3.528,13.943 c -0.305,1.184 -0.822,2.116 -1.537,2.77 -0.713,0.652 -1.525,0.97 -2.482,0.97 -0.947,0 -1.71,-0.247 -2.266,-0.734 -0.555,-0.486 -0.824,-1.111 -0.824,-1.913 0,-0.722 0.227,-1.307 0.695,-1.79 0.484,-0.499 1.471,-1.056 2.933,-1.655 0.159,-0.064 0.391,-0.16 0.696,-0.288 C 2.857,10.454 4.188,9.743 4.808,9.132 5.277,8.68 5.633,8.15 5.865,7.561 6.095,6.973 6.212,6.306 6.212,5.578 6.212,3.971 5.62,2.623 4.454,1.573 3.293,0.529 1.794,0 0,0"
             style="fill:#231f20;fill-opacity:1;fill-rule:nonzero;stroke:none"
             id="path5761"
             inkscape:connector-curvature="0" /></g><g
           id="g5763"
           transform="translate(250.2037,66.2716)"><path
             d="m 0,0 -5.301,0 0,0.941 0.236,0.014 c 0.319,0.019 0.529,0.145 0.66,0.398 0.153,0.293 0.23,0.805 0.23,1.519 l 0,12.379 c 0,0.73 -0.079,1.25 -0.235,1.548 -0.134,0.256 -0.341,0.381 -0.651,0.393 l -0.24,0.01 0,0.957 5.301,0 0,-0.957 -0.24,-0.01 C -0.551,17.18 -0.758,17.058 -0.891,16.81 -1.046,16.52 -1.125,15.996 -1.125,15.251 l 0,-12.379 c 0,-0.729 0.077,-1.244 0.229,-1.529 0.129,-0.244 0.337,-0.364 0.656,-0.376 L 0,0.957 0,0 Z"
             style="fill:#231f20;fill-opacity:1;fill-rule:nonzero;stroke:none"
             id="path5765"
             inkscape:connector-curvature="0" /></g><g
           id="g5767"
           transform="translate(261.7383,66.2716)"><path
             d="m 0,0 -5.349,0 0.024,0.957 0.234,0.01 c 0.31,0.012 0.514,0.135 0.644,0.386 0.153,0.293 0.23,0.805 0.23,1.519 l 0,13.457 c 0,0.337 -0.056,0.413 -0.059,0.416 0,0 -0.069,0.052 -0.349,0.052 -1.314,0 -2.324,-0.206 -3.003,-0.611 -0.681,-0.406 -1.321,-1.141 -1.903,-2.183 l -0.11,-0.195 -0.944,0.399 1.037,3.952 13.723,0 1.038,-3.952 -0.945,-0.399 -0.109,0.196 c -0.582,1.049 -1.22,1.785 -1.897,2.187 -0.676,0.402 -1.68,0.606 -2.985,0.606 -0.312,0 -0.378,-0.062 -0.379,-0.063 -0.002,-0.003 -0.065,-0.075 -0.065,-0.405 l 0,-13.457 c 0,-0.72 0.082,-1.233 0.244,-1.525 0.14,-0.253 0.35,-0.374 0.66,-0.38 L -0.024,0.962 0,0 Z"
             style="fill:#231f20;fill-opacity:1;fill-rule:nonzero;stroke:none"
             id="path5769"
             inkscape:connector-curvature="0" /></g><g
           id="g5771"
           transform="translate(270.2846,73.3682)"><path
             d="M 0,0 4.813,0 2.496,7.645 0,0 Z m 10.854,-7.097 -5.284,0 0,0.919 0.197,0.042 c 0.207,0.046 0.367,0.13 0.489,0.258 0.111,0.116 0.165,0.25 0.165,0.408 0,0.097 -0.034,0.321 -0.193,0.836 -0.044,0.142 -0.072,0.229 -0.094,0.293 l -0.917,2.979 -5.667,0 -0.711,-2.186 c -0.066,-0.221 -0.118,-0.439 -0.153,-0.646 -0.034,-0.207 -0.05,-0.386 -0.05,-0.546 0,-0.399 0.086,-0.719 0.257,-0.953 0.167,-0.23 0.409,-0.374 0.74,-0.442 l 0.2,-0.041 0,-0.921 -4.81,0 0,0.896 0.169,0.057 c 0.554,0.19 1.027,0.553 1.405,1.078 0.394,0.546 0.807,1.491 1.227,2.809 l 4.475,13.702 1.907,0 4.941,-15.221 c 0.271,-0.845 0.537,-1.465 0.79,-1.842 0.22,-0.328 0.443,-0.501 0.662,-0.512 l 0.231,-0.013 0.024,-0.954 z"
             style="fill:#231f20;fill-opacity:1;fill-rule:nonzero;stroke:none"
             id="path5773"
             inkscape:connector-curvature="0" /></g><g
           id="g5775"
           transform="translate(276.2519,85.6427)"><path
             d="M 0,0 -1.463,0 -5.474,2.492 C -5.75,2.669 -5.96,2.855 -6.101,3.047 -6.255,3.257 -6.334,3.48 -6.334,3.71 c 0,0.308 0.107,0.57 0.32,0.777 0.353,0.346 0.91,0.425 1.418,0.134 0.189,-0.107 0.427,-0.309 0.726,-0.617 L 0,0 Z"
             style="fill:#231f20;fill-opacity:1;fill-rule:nonzero;stroke:none"
             id="path5777"
             inkscape:connector-curvature="0" /></g><g
           id="g5779"
           transform="translate(296.4668,83.3077)"><path
             d="m 0,0 c -1.611,0 -2.257,-0.199 -2.515,-0.367 -0.341,-0.22 -0.514,-0.698 -0.514,-1.418 l 0,-12.667 c 0,-0.54 0.109,-0.902 0.324,-1.073 0.131,-0.105 0.525,-0.281 1.701,-0.281 2.579,0 4.412,0.577 5.448,1.715 1.04,1.144 1.568,3.157 1.568,5.985 0,2.742 -0.504,4.806 -1.499,6.135 C 3.532,-0.663 2.014,0 0,0 m -0.383,-17.036 -6.773,0 0,0.962 0.245,0.005 c 0.307,0.006 0.512,0.127 0.644,0.381 0.157,0.297 0.236,0.81 0.236,1.524 l 0,12.379 c 0,0.744 -0.079,1.268 -0.235,1.558 -0.132,0.248 -0.339,0.371 -0.65,0.383 l -0.24,0.01 0,0.949 4.168,0.128 c 0.297,0.007 0.591,0.013 0.885,0.017 0.291,0.004 0.659,0.007 1.099,0.007 1.284,0 2.361,-0.08 3.2,-0.238 C 3.043,0.87 3.82,0.61 4.509,0.257 5.959,-0.48 7.121,-1.62 7.965,-3.129 8.805,-4.634 9.23,-6.341 9.23,-8.202 c 0,-2.751 -0.861,-4.935 -2.559,-6.493 -1.692,-1.554 -4.066,-2.341 -7.054,-2.341"
             style="fill:#231f20;fill-opacity:1;fill-rule:nonzero;stroke:none"
             id="path5781"
             inkscape:connector-curvature="0" /></g><g
           id="g5783"
           transform="translate(320.7666,66.2716)"><path
             d="m 0,0 -13.212,0 0,0.962 0.245,0.005 c 0.307,0.006 0.512,0.127 0.645,0.381 0.156,0.298 0.235,0.81 0.235,1.524 l 0,12.379 c 0,0.745 -0.079,1.269 -0.234,1.558 -0.133,0.249 -0.34,0.371 -0.651,0.383 l -0.24,0.01 0,0.957 12.81,0 0.326,-3.901 -0.947,-0.133 -0.07,0.189 c -0.344,0.935 -0.852,1.586 -1.511,1.937 -0.679,0.362 -2.062,0.546 -4.11,0.546 l -0.754,0 c -1.169,0 -1.4,-0.138 -1.435,-0.166 -0.031,-0.025 -0.182,-0.186 -0.182,-0.961 l 0,-4.778 2.301,0 c 1.297,0 2.214,0.119 2.725,0.354 0.487,0.224 0.818,0.608 1.013,1.177 l 0.058,0.169 0.835,0 0,-4.702 -0.86,0 -0.058,0.168 c -0.194,0.56 -0.481,0.949 -0.854,1.156 -0.27,0.15 -0.926,0.328 -2.513,0.328 l -2.647,0 0,-6.742 c 0,-0.942 0.193,-1.179 0.276,-1.238 0.12,-0.083 0.519,-0.224 1.857,-0.224 1.28,0 2.202,0.028 2.74,0.082 0.532,0.054 1.003,0.143 1.399,0.266 0.49,0.163 0.973,0.447 1.432,0.843 0.471,0.406 0.978,0.985 1.505,1.721 L 0.252,4.429 1.137,3.955 0,0 Z"
             style="fill:#231f20;fill-opacity:1;fill-rule:nonzero;stroke:none"
             id="path5785"
             inkscape:connector-curvature="0" /></g><g
           id="g5787"
           transform="translate(335.5244,66.2716)"><path
             d="m 0,0 -12.358,0 0,0.941 0.235,0.014 c 0.319,0.019 0.528,0.145 0.66,0.398 0.152,0.293 0.23,0.805 0.23,1.519 l 0,12.379 c 0,0.73 -0.08,1.25 -0.236,1.548 -0.134,0.256 -0.34,0.381 -0.649,0.393 l -0.24,0.01 0,0.957 5.3,0 0,-0.957 -0.24,-0.01 C -7.609,17.18 -7.816,17.058 -7.948,16.81 -8.104,16.52 -8.183,15.996 -8.183,15.251 l 0,-12.451 c 0,-0.925 0.182,-1.16 0.259,-1.218 0.11,-0.083 0.449,-0.22 1.503,-0.22 1.253,0 2.186,0.057 2.772,0.169 0.571,0.11 1.091,0.296 1.546,0.553 0.29,0.163 0.606,0.425 0.942,0.78 0.344,0.365 0.724,0.839 1.133,1.41 L 0.079,4.424 1.012,4.113 0,0 Z"
             style="fill:#231f20;fill-opacity:1;fill-rule:nonzero;stroke:none"
             id="path5789"
             inkscape:connector-curvature="0" /></g><g
           id="g5791"
           transform="translate(350.0693,66.2716)"><path
             d="m 0,0 -12.358,0 0,0.941 0.235,0.014 c 0.319,0.019 0.528,0.145 0.66,0.398 0.152,0.293 0.23,0.805 0.23,1.519 l 0,12.379 c 0,0.73 -0.08,1.25 -0.236,1.548 -0.134,0.256 -0.34,0.381 -0.649,0.393 l -0.24,0.01 0,0.957 5.3,0 0,-0.957 -0.24,-0.01 C -7.609,17.18 -7.816,17.058 -7.948,16.81 -8.104,16.52 -8.183,15.996 -8.183,15.251 l 0,-12.451 c 0,-0.925 0.182,-1.16 0.259,-1.218 0.11,-0.083 0.449,-0.22 1.503,-0.22 1.253,0 2.186,0.057 2.772,0.169 0.571,0.11 1.091,0.296 1.546,0.553 0.29,0.163 0.606,0.425 0.942,0.78 0.344,0.365 0.724,0.839 1.133,1.41 L 0.079,4.424 1.012,4.113 0,0 Z"
             style="fill:#231f20;fill-opacity:1;fill-rule:nonzero;stroke:none"
             id="path5793"
             inkscape:connector-curvature="0" /></g><g
           id="g5795"
           transform="translate(356.3232,73.3682)"><path
             d="M 0,0 4.812,0 2.496,7.645 0,0 Z m 10.854,-7.097 -5.285,0 0,0.919 0.198,0.042 c 0.207,0.046 0.366,0.13 0.489,0.258 0.111,0.116 0.165,0.25 0.165,0.408 0,0.08 -0.025,0.294 -0.193,0.836 -0.039,0.124 -0.069,0.22 -0.093,0.29 l -0.918,2.982 -5.667,0 -0.712,-2.186 c -0.064,-0.213 -0.116,-0.432 -0.153,-0.647 -0.033,-0.2 -0.049,-0.384 -0.049,-0.545 0,-0.399 0.086,-0.719 0.257,-0.954 0.167,-0.229 0.408,-0.373 0.74,-0.441 l 0.2,-0.041 0,-0.921 -4.811,0 0,0.896 0.169,0.057 c 0.561,0.192 1.021,0.544 1.406,1.078 0.395,0.549 0.807,1.494 1.226,2.809 l 4.475,13.702 1.908,0 0.056,-0.173 4.884,-15.048 c 0.272,-0.845 0.538,-1.465 0.792,-1.842 0.219,-0.328 0.442,-0.501 0.661,-0.512 l 0.23,-0.013 0.025,-0.954 z"
             style="fill:#231f20;fill-opacity:1;fill-rule:nonzero;stroke:none"
             id="path5797"
             inkscape:connector-curvature="0" /></g><g
           id="g5799"
           transform="translate(383.416,65.8765)"><path
             d="m 0,0 c -2.442,0 -4.428,0.827 -5.902,2.459 -1.469,1.622 -2.213,3.808 -2.213,6.495 0,1.682 0.281,3.234 0.837,4.612 0.557,1.382 1.391,2.583 2.477,3.57 0.618,0.57 1.388,1.018 2.287,1.332 1.766,0.616 3.763,0.65 5.822,-0.059 1.008,-0.348 2.068,-0.886 3.15,-1.596 L 6.615,16.709 5.573,13.356 4.646,13.494 4.598,13.642 c -0.431,1.329 -1.063,2.352 -1.88,3.04 -0.807,0.68 -1.794,1.025 -2.935,1.025 -1.49,0 -2.663,-0.641 -3.584,-1.958 -0.927,-1.328 -1.396,-3.127 -1.396,-5.347 0,-2.504 0.601,-4.574 1.788,-6.152 1.185,-1.581 2.653,-2.349 4.487,-2.349 1.05,0 2.026,0.262 2.901,0.779 C 4.864,3.204 5.7,4.01 6.465,5.077 L 6.609,5.278 7.447,4.689 7.324,4.489 C 6.39,2.961 5.318,1.819 4.141,1.097 2.958,0.369 1.564,0 0,0"
             style="fill:#231f20;fill-opacity:1;fill-rule:nonzero;stroke:none"
             id="path5801"
             inkscape:connector-curvature="0" /></g><g
           id="g5803"
           transform="translate(394.7627,73.3682)"><path
             d="M 0,0 4.814,0 2.496,7.645 0,0 Z m 10.855,-7.097 -5.284,0 0,0.919 0.198,0.042 c 0.207,0.046 0.366,0.13 0.489,0.258 0.109,0.116 0.163,0.25 0.163,0.408 0,0.096 -0.033,0.32 -0.192,0.837 l -1.012,3.271 -5.667,0 -0.709,-2.186 c -0.07,-0.227 -0.121,-0.446 -0.153,-0.645 -0.036,-0.212 -0.052,-0.391 -0.052,-0.547 0,-0.399 0.087,-0.719 0.258,-0.953 0.168,-0.23 0.409,-0.375 0.739,-0.442 l 0.2,-0.041 0,-0.921 -4.809,0 0,0.896 0.169,0.057 c 0.555,0.19 1.027,0.553 1.404,1.078 0.392,0.543 0.805,1.488 1.228,2.809 l 4.475,13.702 1.906,0 0.056,-0.173 4.885,-15.048 c 0.271,-0.845 0.537,-1.465 0.791,-1.842 0.219,-0.328 0.442,-0.501 0.663,-0.512 l 0.23,-0.013 0.024,-0.954 z"
             style="fill:#231f20;fill-opacity:1;fill-rule:nonzero;stroke:none"
             id="path5805"
             inkscape:connector-curvature="0" /></g><g
           id="g5807"
           transform="translate(418.5947,66.2716)"><path
             d="m 0,0 -12.358,0 0,0.941 0.235,0.014 c 0.319,0.019 0.528,0.145 0.66,0.398 0.152,0.293 0.23,0.805 0.23,1.519 l 0,12.379 c 0,0.73 -0.08,1.25 -0.236,1.548 -0.134,0.256 -0.34,0.381 -0.649,0.393 l -0.24,0.01 0,0.957 5.3,0 0,-0.957 -0.24,-0.01 C -7.609,17.18 -7.816,17.058 -7.948,16.81 -8.104,16.52 -8.183,15.996 -8.183,15.251 l 0,-12.451 c 0,-0.925 0.182,-1.16 0.259,-1.218 0.11,-0.083 0.449,-0.22 1.503,-0.22 1.253,0 2.186,0.057 2.772,0.169 0.571,0.11 1.091,0.296 1.546,0.553 0.29,0.163 0.606,0.425 0.942,0.78 0.344,0.365 0.724,0.839 1.133,1.41 L 0.079,4.424 1.012,4.113 0,0 Z"
             style="fill:#231f20;fill-opacity:1;fill-rule:nonzero;stroke:none"
             id="path5809"
             inkscape:connector-curvature="0" /></g><g
           id="g5811"
           transform="translate(424.3818,73.3682)"><path
             d="M 0,0 4.814,0 2.496,7.645 0,0 Z m 10.855,-7.097 -5.284,0 0,0.919 0.198,0.042 c 0.207,0.046 0.366,0.13 0.489,0.258 0.109,0.116 0.163,0.25 0.163,0.408 0,0.096 -0.033,0.32 -0.192,0.837 l -1.012,3.271 -5.667,0 -0.709,-2.186 c -0.07,-0.227 -0.121,-0.446 -0.153,-0.645 -0.036,-0.212 -0.052,-0.391 -0.052,-0.547 0,-0.399 0.087,-0.719 0.258,-0.953 0.168,-0.23 0.409,-0.375 0.739,-0.442 l 0.2,-0.041 0,-0.921 -4.809,0 0,0.896 0.169,0.057 c 0.555,0.19 1.027,0.553 1.404,1.078 0.392,0.543 0.805,1.488 1.228,2.809 l 4.475,13.702 1.906,0 0.056,-0.173 4.885,-15.048 c 0.271,-0.845 0.537,-1.465 0.791,-1.842 0.219,-0.328 0.442,-0.501 0.663,-0.512 l 0.23,-0.013 0.024,-0.954 z"
             style="fill:#231f20;fill-opacity:1;fill-rule:nonzero;stroke:none"
             id="path5813"
             inkscape:connector-curvature="0" /></g><g
           id="g5815"
           transform="translate(439.8633,76.5767)"><path
             d="M 0,0 1.318,0 C 3.278,0 4.684,0.265 5.493,0.786 6.278,1.293 6.66,2.117 6.66,3.306 6.66,4.425 6.308,5.259 5.583,5.854 4.854,6.452 3.789,6.755 2.42,6.755 1.13,6.755 0.615,6.582 0.41,6.437 0.142,6.246 0,5.739 0,4.97 L 0,0 Z m 0,-1.23 0,-6.227 c 0,-0.973 0.205,-1.266 0.327,-1.354 0.137,-0.099 0.574,-0.264 1.974,-0.264 1.705,0 2.969,0.322 3.757,0.957 0.773,0.621 1.165,1.614 1.165,2.948 0,1.328 -0.38,2.325 -1.129,2.963 C 5.335,-1.559 4.14,-1.23 2.539,-1.23 L 0,-1.23 Z m 2.646,-9.075 -6.773,0 0,0.962 0.245,0.005 c 0.307,0.005 0.512,0.127 0.645,0.381 0.156,0.297 0.235,0.81 0.235,1.524 l 0,12.379 c 0,0.744 -0.079,1.268 -0.234,1.558 -0.133,0.248 -0.34,0.371 -0.651,0.383 l -0.24,0.009 0,0.951 4.098,0.103 C 0.411,7.958 0.873,7.967 1.359,7.979 1.852,7.991 2.125,7.998 2.18,7.998 4.341,7.998 6.13,7.566 7.495,6.715 8.9,5.84 9.613,4.701 9.613,3.33 9.613,2.317 9.202,1.442 8.392,0.729 7.78,0.193 6.948,-0.242 5.911,-0.57 c 1.185,-0.344 2.161,-0.874 2.911,-1.581 0.962,-0.908 1.449,-2.008 1.449,-3.271 0,-1.585 -0.675,-2.814 -2.007,-3.653 -1.296,-0.817 -3.186,-1.23 -5.618,-1.23"
             style="fill:#231f20;fill-opacity:1;fill-rule:nonzero;stroke:none"
             id="path5817"
             inkscape:connector-curvature="0" /></g><g
           id="g5819"
           transform="translate(455.5351,75.6363)"><path
             d="m 0,0 c 0.163,-0.027 0.344,-0.046 0.538,-0.06 0.287,-0.02 0.635,-0.029 1.044,-0.029 1.94,0 3.388,0.327 4.304,0.972 0.899,0.635 1.337,1.591 1.337,2.92 0,1.3 -0.403,2.316 -1.198,3.022 C 5.222,7.538 4.057,7.899 2.563,7.899 1.559,7.899 0.867,7.77 0.506,7.514 0.17,7.278 0,6.807 0,6.114 L 0,0 Z m 10.859,-11.503 -0.347,0.147 c -1.747,0.739 -3.344,2 -4.744,3.749 C 4.407,-5.908 3.255,-3.77 2.341,-1.25 2.238,-1.251 2.111,-1.255 1.961,-1.26 1.701,-1.268 1.512,-1.271 1.391,-1.271 1.076,-1.271 0.612,-1.259 0,-1.232 L 0,-6.493 C 0,-7.222 0.079,-7.738 0.234,-8.027 0.367,-8.274 0.572,-8.392 0.88,-8.398 l 0.245,-0.005 0,-0.962 -5.252,0 0,0.962 0.245,0.005 c 0.307,0.006 0.512,0.127 0.645,0.381 0.156,0.298 0.235,0.81 0.235,1.524 l 0,12.379 c 0,0.745 -0.079,1.269 -0.234,1.558 -0.133,0.249 -0.34,0.371 -0.651,0.383 l -0.24,0.01 0,0.945 4.236,0.203 C 0.702,9.01 1.188,9.028 1.568,9.04 1.95,9.052 2.234,9.058 2.42,9.058 c 2.409,0 4.36,-0.481 5.8,-1.431 1.472,-0.971 2.219,-2.282 2.219,-3.896 0,-1.191 -0.465,-2.23 -1.383,-3.086 -0.848,-0.788 -2,-1.339 -3.431,-1.641 0.829,-2.335 1.679,-4.313 2.528,-5.88 0.869,-1.609 1.75,-2.802 2.619,-3.545 l 0.087,-0.075 0,-1.007 z"
             style="fill:#231f20;fill-opacity:1;fill-rule:nonzero;stroke:none"
             id="path5821"
             inkscape:connector-curvature="0" /></g><g
           id="g5823"
           transform="translate(472.4511,66.2716)"><path
             d="m 0,0 -5.301,0 0,0.941 0.236,0.014 c 0.32,0.019 0.53,0.145 0.662,0.398 0.152,0.293 0.229,0.805 0.229,1.519 l 0,12.379 c 0,0.73 -0.079,1.25 -0.235,1.548 -0.134,0.256 -0.341,0.381 -0.652,0.393 l -0.24,0.01 0,0.957 5.301,0 0,-0.957 -0.24,-0.01 C -0.551,17.18 -0.758,17.058 -0.891,16.809 -1.046,16.52 -1.125,15.996 -1.125,15.251 l 0,-12.379 c 0,-0.729 0.077,-1.244 0.229,-1.529 0.129,-0.244 0.338,-0.364 0.656,-0.376 L 0,0.957 0,0 Z"
             style="fill:#231f20;fill-opacity:1;fill-rule:nonzero;stroke:none"
             id="path5825"
             inkscape:connector-curvature="0" /></g><g
           id="g5827"
           transform="translate(478.3955,73.3682)"><path
             d="M 0,0 4.814,0 2.496,7.645 0,0 Z m 10.855,-7.097 -5.284,0 0,0.919 0.198,0.042 c 0.207,0.046 0.366,0.13 0.489,0.258 0.109,0.116 0.163,0.25 0.163,0.408 0,0.096 -0.033,0.32 -0.192,0.837 l -1.012,3.271 -5.667,0 -0.709,-2.186 c -0.07,-0.227 -0.121,-0.446 -0.153,-0.645 -0.036,-0.212 -0.052,-0.391 -0.052,-0.547 0,-0.399 0.087,-0.719 0.258,-0.953 0.168,-0.23 0.409,-0.375 0.739,-0.442 l 0.2,-0.041 0,-0.921 -4.809,0 0,0.896 0.169,0.057 c 0.555,0.19 1.027,0.553 1.404,1.078 0.392,0.543 0.805,1.488 1.228,2.809 l 4.475,13.702 1.906,0 0.056,-0.173 4.885,-15.048 c 0.271,-0.845 0.537,-1.465 0.791,-1.842 0.219,-0.328 0.442,-0.501 0.663,-0.512 l 0.23,-0.013 0.024,-0.954 z"
             style="fill:#231f20;fill-opacity:1;fill-rule:nonzero;stroke:none"
             id="path5829"
             inkscape:connector-curvature="0" /></g><path
           d="m 135.58,59.117 -0.5,0 0,32.113 0.5,0 0,-32.113 z"
           style="fill:#231f20;fill-opacity:1;fill-rule:nonzero;stroke:none"
           id="path5831"
           inkscape:connector-curvature="0" /><path
           d="m 135.33,59.616 355.523,0 0,-0.5 -355.523,0 0,0.5 z"
           style="fill:#231f20;fill-opacity:1;fill-rule:nonzero;stroke:none"
           id="path5833"
           inkscape:connector-curvature="0" /></g></g></g></svg>